<svg width="321" height="96" viewBox="0 0 321 96" fill="none" xmlns="http://www.w3.org/2000/svg">
<rect x="0.75" y="0.75" width="67.4081" height="67.4081" rx="33.704" fill="white" stroke="#E8E9ED" stroke-width="1.5"/>
<path d="M31.7893 44.1159C31.4074 44.1159 31.0537 43.9007 30.8801 43.5539L28.1194 38.0378L26.5827 40.4027C26.395 40.6914 26.0741 40.8656 25.7298 40.8656H18.0172C17.4554 40.8655 17 40.4101 17 39.8484C17 39.2866 17.4554 38.8312 18.0172 38.8312H25.1777L27.3813 35.4401C27.5801 35.1344 27.9279 34.9592 28.2912 34.9787C28.6554 34.9992 28.9806 35.213 29.1438 35.5391L31.4933 40.2336L33.8791 31.1865C33.9893 30.7689 34.3512 30.4663 34.7817 30.432C35.2117 30.3975 35.6176 30.639 35.7926 31.0338L37.5346 34.9653L39.0007 32.6927C39.1868 32.4044 39.5055 32.2293 39.8486 32.2269C40.1966 32.2235 40.5128 32.3955 40.7027 32.6812L42.2276 34.977H49.9818C50.5436 34.977 50.999 35.4324 50.999 35.9942C50.999 36.556 50.5436 37.0114 49.9818 37.0114H41.6821C41.3414 37.0114 41.0233 36.8408 40.8348 36.557L39.8678 35.1012L38.2226 37.6515C38.02 37.9656 37.661 38.1434 37.2886 38.1142C36.916 38.0851 36.5893 37.8539 36.4378 37.5122L35.1069 34.5083L32.7733 43.358C32.6654 43.7672 32.3153 44.0669 31.8945 44.1104C31.8592 44.114 31.8242 44.1159 31.7893 44.1159Z" fill="#2D527C"/>
<path d="M33.46 51.4971C33.3122 51.4971 33.1643 51.465 33.0273 51.4005C28.1753 49.1198 23.3047 44.909 20.3162 40.4113C20.1087 40.0991 20.0898 39.698 20.267 39.3676C20.4441 39.0373 20.7886 38.8312 21.1634 38.8312H25.1778L27.3813 35.44C27.58 35.1343 27.9276 34.9582 28.2913 34.9787C28.6554 34.9991 28.9806 35.2129 29.1438 35.539L31.4934 40.2336L33.8791 31.1864C33.9893 30.7688 34.3512 30.4662 34.7818 30.4319C35.2117 30.3974 35.6176 30.6389 35.7926 31.0337L37.5346 34.9652L39.0007 32.6926C39.1868 32.4044 39.5056 32.2292 39.8487 32.2269C39.8509 32.2269 39.8532 32.2269 39.8555 32.2269C40.196 32.2269 40.5142 32.3973 40.7028 32.6812L42.5295 35.4314C42.8404 35.8994 42.713 36.5307 42.2451 36.8415C41.777 37.1523 41.1458 37.0249 40.835 36.5571L39.8679 35.1012L38.2228 37.6516C38.02 37.9657 37.6606 38.1435 37.2888 38.1143C36.9161 38.0852 36.5895 37.854 36.438 37.5122L35.1071 34.5083L32.7734 43.358C32.6655 43.7672 32.3155 44.0669 31.8946 44.1104C31.473 44.1536 31.0697 43.9323 30.8803 43.5539L28.1196 38.0378L26.5828 40.4027C26.3952 40.6913 26.0742 40.8656 25.7299 40.8656H23.156C25.8492 44.296 29.7002 47.4842 33.46 49.3504C36.9566 47.6145 40.5919 44.7038 43.2646 41.4867C43.6237 41.0546 44.2648 40.9953 44.697 41.3543C45.1291 41.7133 45.1884 42.3546 44.8294 42.7867C41.865 46.355 37.7766 49.575 33.8927 51.4006C33.7557 51.465 33.6077 51.4971 33.46 51.4971Z" fill="#2D527C"/>
<path d="M28.234 35.9952L31.7896 43.0995L34.8624 31.4468L37.3677 37.101L39.8552 33.245L41.682 35.9952H47.7709C48.0207 35.3299 48.2171 34.6663 48.3515 34.0095C48.4899 33.331 48.565 32.6562 48.565 31.9959C48.565 27.0385 44.601 23.0176 39.7105 23.0176C37.2715 23.0176 35.0631 24.0191 33.4597 25.6368C31.8564 24.019 29.6481 23.0176 27.209 23.0176C22.3186 23.0176 18.3545 27.0385 18.3545 31.9959C18.3545 32.6562 18.4295 33.331 18.568 34.0095C18.9628 35.9404 19.8874 37.9294 21.1631 39.8493H25.7295L28.234 35.9952Z" fill="#CEE8FA"/>
<path d="M31.7893 44.1163C31.4074 44.1163 31.0537 43.9011 30.8801 43.5544L28.1194 38.0383L26.5826 40.4032C26.395 40.6919 26.0741 40.8661 25.7297 40.8661H21.1633C20.8227 40.8661 20.5046 40.6956 20.3161 40.4118C18.9005 38.2815 17.9773 36.1958 17.5717 34.213C17.4164 33.4511 17.3376 32.7052 17.3376 31.9955C17.3376 26.4839 21.766 22 27.2092 22C29.513 22 31.6988 22.7956 33.46 24.2585C35.2212 22.7956 37.407 22 39.7108 22C45.154 22 49.5823 26.4839 49.5823 31.9955C49.5823 32.7055 49.5035 33.4513 49.3483 34.2125C49.2066 34.9053 48.9964 35.6252 48.7234 36.3523C48.5745 36.7491 48.195 37.0119 47.7712 37.0119H41.6822C41.3415 37.0119 41.0234 36.8413 40.8349 36.5576L39.8679 35.1018L38.2226 37.6521C38.02 37.9662 37.6611 38.144 37.2887 38.1148C36.916 38.0857 36.5894 37.8545 36.4379 37.5127L35.107 34.5088L32.7733 43.3585C32.6654 43.7677 32.3154 44.0674 31.8945 44.1109C31.8592 44.1144 31.8241 44.1163 31.7893 44.1163ZM28.234 34.9776C28.253 34.9776 28.2721 34.9781 28.2912 34.9792C28.6554 34.9997 28.9806 35.2135 29.1438 35.5396L31.4933 40.2341L33.8791 31.187C33.9892 30.7694 34.3511 30.4668 34.7817 30.4325C35.2117 30.398 35.6176 30.6395 35.7926 31.0343L37.5346 34.9658L39.0007 32.6932C39.1868 32.4049 39.5055 32.2298 39.8486 32.2274C40.1966 32.224 40.5129 32.396 40.7027 32.6817L42.2276 34.9775H47.0475C47.1743 34.578 47.2773 34.1856 47.3551 33.8051C47.483 33.178 47.5479 32.569 47.5479 31.9953C47.5479 27.6054 44.0322 24.0341 39.7108 24.0341C37.6273 24.0341 35.6639 24.8574 34.1825 26.3522C33.9915 26.545 33.7315 26.6534 33.4601 26.6534C33.1887 26.6534 32.9286 26.545 32.7376 26.3522C31.2562 24.8574 29.2928 24.0341 27.2094 24.0341C22.8878 24.0341 19.3721 27.6054 19.3721 31.9953C19.3721 32.5688 19.4369 33.1778 19.565 33.8057C19.8897 35.3934 20.6129 37.0823 21.7164 38.8316H25.1778L27.3813 35.4405C27.5695 35.1508 27.8911 34.9776 28.234 34.9776Z" fill="#2D527C"/>
<path d="M19.454 83L17.422 80.512V83H16.302V77.416H17.422V79.92L19.454 77.416H20.806L18.502 80.184L20.87 83H19.454ZM23.5107 79.416C22.9747 79.416 22.5507 79.76 22.4627 80.368H24.5667C24.5507 79.784 24.0867 79.416 23.5107 79.416ZM25.6147 81.608C25.3747 82.424 24.6387 83.072 23.5427 83.072C22.2547 83.072 21.3187 82.176 21.3187 80.784C21.3187 79.384 22.2307 78.496 23.5427 78.496C24.8227 78.496 25.7267 79.368 25.7267 80.688C25.7267 80.832 25.7187 80.976 25.6947 81.12H22.4547C22.5107 81.776 22.9587 82.144 23.5187 82.144C23.9987 82.144 24.2627 81.904 24.4067 81.608H25.6147ZM28.4322 81.664L29.5922 78.568H30.7842L28.0402 85.096H26.8482L27.8082 82.888L26.0322 78.568H27.2882L28.4322 81.664ZM36.4062 81.352C36.4062 80.872 36.0622 80.584 35.5182 80.584H34.4142V82.088H35.5422C36.0862 82.088 36.4062 81.824 36.4062 81.352ZM36.2702 79.024C36.2702 78.576 35.9662 78.32 35.4382 78.32H34.4142V79.72H35.4382C35.9662 79.72 36.2702 79.48 36.2702 79.024ZM37.5422 81.488C37.5422 82.376 36.8622 83 35.7022 83H33.2942V77.416H35.5982C36.7662 77.416 37.4142 78.024 37.4142 78.856C37.4142 79.536 37.0062 79.96 36.4622 80.136C37.0942 80.248 37.5422 80.832 37.5422 81.488ZM42.7148 80.784C42.7148 82.176 41.6908 83.072 40.4028 83.072C39.1228 83.072 38.1548 82.176 38.1548 80.784C38.1548 79.384 39.1548 78.496 40.4348 78.496C41.7148 78.496 42.7148 79.384 42.7148 80.784ZM39.2908 80.784C39.2908 81.664 39.8028 82.096 40.4028 82.096C40.9948 82.096 41.5628 81.664 41.5628 80.784C41.5628 79.896 41.0108 79.472 40.4188 79.472C39.8268 79.472 39.2908 79.896 39.2908 80.784ZM43.2484 80.768C43.2484 79.384 44.1444 78.496 45.2804 78.496C45.8644 78.496 46.4244 78.768 46.7284 79.184V77.08H47.8644V83H46.7284V82.344C46.4644 82.752 45.9684 83.072 45.2724 83.072C44.1444 83.072 43.2484 82.152 43.2484 80.768ZM46.7364 80.784C46.7364 79.944 46.1764 79.48 45.5604 79.48C44.9604 79.48 44.3924 79.928 44.3924 80.768C44.3924 81.608 44.9604 82.088 45.5604 82.088C46.1764 82.088 46.7364 81.624 46.7364 80.784ZM50.8463 81.664L52.0063 78.568H53.1983L50.4543 85.096H49.2623L50.2223 82.888L48.4463 78.568H49.7023L50.8463 81.664ZM25.8363 90.856L27.3643 86.416H28.5563L26.5083 92H25.1483L23.1003 86.416H24.3003L25.8363 90.856ZM29.2278 92V87.568H30.3478V92H29.2278ZM29.7958 87.04C29.3958 87.04 29.1078 86.752 29.1078 86.384C29.1078 86.016 29.3958 85.728 29.7958 85.728C30.1878 85.728 30.4838 86.016 30.4838 86.384C30.4838 86.752 30.1878 87.04 29.7958 87.04ZM31.6303 90.624V88.488H31.1023V87.568H31.6303V86.472H32.7583V87.568H33.7503V88.488H32.7583V90.632C32.7583 90.928 32.8783 91.056 33.2303 91.056H33.7503V92H33.0463C32.1983 92 31.6303 91.64 31.6303 90.624ZM34.2679 89.768C34.2679 88.384 35.1639 87.496 36.2919 87.496C37.0039 87.496 37.4919 87.832 37.7559 88.2V87.568H38.8839V92H37.7559V91.352C37.4919 91.736 36.9879 92.072 36.2839 92.072C35.1639 92.072 34.2679 91.152 34.2679 89.768ZM37.7559 89.784C37.7559 88.944 37.1959 88.48 36.5799 88.48C35.9799 88.48 35.4119 88.928 35.4119 89.768C35.4119 90.608 35.9799 91.088 36.5799 91.088C37.1959 91.088 37.7559 90.624 37.7559 89.784ZM39.9778 92V86.08H41.0978V92H39.9778ZM45.6443 90.736C45.6443 91.496 44.9803 92.072 43.9003 92.072C42.7883 92.072 42.0123 91.424 41.9643 90.6H43.0923C43.1323 90.936 43.4443 91.192 43.8923 91.192C44.3323 91.192 44.5723 90.992 44.5723 90.736C44.5723 89.944 42.0683 90.448 42.0683 88.824C42.0683 88.088 42.7243 87.496 43.8203 87.496C44.8923 87.496 45.5403 88.08 45.6043 88.96H44.5323C44.5003 88.616 44.2283 88.384 43.7883 88.384C43.3723 88.384 43.1563 88.552 43.1563 88.808C43.1563 89.616 45.6123 89.112 45.6443 90.736Z" fill="#303030"/>
<rect x="252.689" y="0.75" width="67.4081" height="67.4081" rx="33.704" fill="white" stroke="#E8E9ED" stroke-width="1.5"/>
<path d="M272.657 83V77.416H273.777V83H272.657ZM277.988 83V80.552C277.988 79.84 277.596 79.456 277.004 79.456C276.396 79.456 276.004 79.84 276.004 80.552V83H274.884V78.568H276.004V79.12C276.292 78.744 276.772 78.504 277.34 78.504C278.372 78.504 279.108 79.176 279.108 80.4V83H277.988ZM283.613 81.736C283.613 82.496 282.949 83.072 281.869 83.072C280.757 83.072 279.981 82.424 279.933 81.6H281.061C281.101 81.936 281.413 82.192 281.861 82.192C282.301 82.192 282.541 81.992 282.541 81.736C282.541 80.944 280.037 81.448 280.037 79.824C280.037 79.088 280.693 78.496 281.789 78.496C282.861 78.496 283.509 79.08 283.573 79.96H282.501C282.469 79.616 282.197 79.384 281.757 79.384C281.341 79.384 281.125 79.552 281.125 79.808C281.125 80.616 283.581 80.112 283.613 81.736ZM284.708 81.624V79.488H284.18V78.568H284.708V77.472H285.836V78.568H286.828V79.488H285.836V81.632C285.836 81.928 285.956 82.056 286.308 82.056H286.828V83H286.124C285.276 83 284.708 82.64 284.708 81.624ZM287.346 80.768C287.346 79.384 288.242 78.496 289.37 78.496C290.082 78.496 290.57 78.832 290.834 79.2V78.568H291.962V83H290.834V82.352C290.57 82.736 290.066 83.072 289.362 83.072C288.242 83.072 287.346 82.152 287.346 80.768ZM290.834 80.784C290.834 79.944 290.274 79.48 289.658 79.48C289.058 79.48 288.49 79.928 288.49 80.768C288.49 81.608 289.058 82.088 289.658 82.088C290.274 82.088 290.834 81.624 290.834 80.784ZM296.16 83V80.552C296.16 79.84 295.768 79.456 295.176 79.456C294.568 79.456 294.176 79.84 294.176 80.552V83H293.056V78.568H294.176V79.12C294.464 78.744 294.944 78.504 295.512 78.504C296.544 78.504 297.28 79.176 297.28 80.4V83H296.16ZM298.521 81.624V79.488H297.993V78.568H298.521V77.472H299.649V78.568H300.641V79.488H299.649V81.632C299.649 81.928 299.769 82.056 300.121 82.056H300.641V83H299.937C299.089 83 298.521 82.64 298.521 81.624ZM274.371 88.152C274.371 87.656 274.091 87.344 273.467 87.344H272.531V88.984H273.467C274.091 88.984 274.371 88.656 274.371 88.152ZM271.411 86.416H273.507C274.851 86.416 275.523 87.192 275.523 88.128C275.523 88.808 275.147 89.496 274.251 89.736L275.587 92H274.291L273.059 89.824H272.531V92H271.411V86.416ZM278.44 88.416C277.904 88.416 277.48 88.76 277.392 89.368H279.496C279.48 88.784 279.016 88.416 278.44 88.416ZM280.544 90.608C280.304 91.424 279.568 92.072 278.472 92.072C277.184 92.072 276.248 91.176 276.248 89.784C276.248 88.384 277.16 87.496 278.472 87.496C279.752 87.496 280.656 88.368 280.656 89.688C280.656 89.832 280.648 89.976 280.624 90.12H277.384C277.44 90.776 277.888 91.144 278.448 91.144C278.928 91.144 279.192 90.904 279.336 90.608H280.544ZM282.594 88.208C282.858 87.832 283.37 87.496 284.058 87.496C285.194 87.496 286.082 88.384 286.082 89.768C286.082 91.152 285.194 92.072 284.058 92.072C283.362 92.072 282.866 91.728 282.594 91.368V94.112H281.474V87.568H282.594V88.208ZM284.938 89.768C284.938 88.928 284.37 88.48 283.762 88.48C283.162 88.48 282.594 88.944 282.594 89.784C282.594 90.624 283.162 91.088 283.762 91.088C284.37 91.088 284.938 90.608 284.938 89.768ZM291.176 89.784C291.176 91.176 290.152 92.072 288.864 92.072C287.584 92.072 286.616 91.176 286.616 89.784C286.616 88.384 287.616 87.496 288.896 87.496C290.176 87.496 291.176 88.384 291.176 89.784ZM287.752 89.784C287.752 90.664 288.264 91.096 288.864 91.096C289.456 91.096 290.024 90.664 290.024 89.784C290.024 88.896 289.472 88.472 288.88 88.472C288.288 88.472 287.752 88.896 287.752 89.784ZM293.117 89.792V92H291.997V87.568H293.117V88.256C293.397 87.8 293.861 87.504 294.477 87.504V88.68H294.181C293.517 88.68 293.117 88.936 293.117 89.792ZM295.408 90.624V88.488H294.88V87.568H295.408V86.472H296.536V87.568H297.528V88.488H296.536V90.632C296.536 90.928 296.656 91.056 297.008 91.056H297.528V92H296.824C295.976 92 295.408 91.64 295.408 90.624ZM301.773 90.736C301.773 91.496 301.109 92.072 300.029 92.072C298.917 92.072 298.141 91.424 298.093 90.6H299.221C299.261 90.936 299.573 91.192 300.021 91.192C300.461 91.192 300.701 90.992 300.701 90.736C300.701 89.944 298.197 90.448 298.197 88.824C298.197 88.088 298.853 87.496 299.949 87.496C301.021 87.496 301.669 88.08 301.733 88.96H300.661C300.629 88.616 300.357 88.384 299.917 88.384C299.501 88.384 299.285 88.552 299.285 88.808C299.285 89.616 301.741 89.112 301.773 90.736Z" fill="#303030"/>
<path d="M278.2 24.4912H304.687C305.083 24.4912 305.454 24.6834 305.683 25.0068C305.912 25.3301 305.969 25.7444 305.837 26.1179L299.377 44.4222C299.205 44.9104 298.743 45.2367 298.225 45.2361H271.739C271.343 45.2361 270.971 45.0439 270.743 44.7206C270.514 44.3972 270.456 43.9829 270.588 43.6095L277.048 25.3051C277.221 24.8169 277.683 24.4907 278.2 24.4912Z" fill="#F3D55B"/>
<path d="M294.314 22.6607H274.179C273.842 22.6607 273.569 22.3875 273.569 22.0506C273.569 21.7136 273.842 21.4404 274.179 21.4404H294.314C294.651 21.4404 294.924 21.7136 294.924 22.0506C294.924 22.3875 294.651 22.6607 294.314 22.6607Z" fill="#67B9CC"/>
<path d="M301.636 22.6609H296.755C296.418 22.6609 296.144 22.3877 296.144 22.0507C296.144 21.7138 296.418 21.4406 296.755 21.4406H301.636C301.973 21.4406 302.246 21.7138 302.246 22.0507C302.246 22.3877 301.973 22.6609 301.636 22.6609Z" fill="#67B9CC"/>
<path d="M299.195 20.2203H283.331C282.994 20.2203 282.721 19.9471 282.721 19.6101C282.721 19.2732 282.994 19 283.331 19H299.195C299.532 19 299.805 19.2732 299.805 19.6101C299.805 19.9471 299.532 20.2203 299.195 20.2203Z" fill="#67B9CC"/>
<path d="M280.891 20.2203H270.518C270.181 20.2203 269.908 19.9471 269.908 19.6101C269.908 19.2732 270.181 19 270.518 19H280.891C281.228 19 281.501 19.2732 281.501 19.6101C281.501 19.9471 281.228 20.2203 280.891 20.2203Z" fill="#67B9CC"/>
<path d="M294.314 48.2867H274.179C273.842 48.2867 273.569 48.0135 273.569 47.6766C273.569 47.3396 273.842 47.0664 274.179 47.0664H294.314C294.651 47.0664 294.924 47.3396 294.924 47.6766C294.924 48.0135 294.651 48.2867 294.314 48.2867Z" fill="#67B9CC"/>
<path d="M301.636 48.2869H296.755C296.418 48.2869 296.144 48.0137 296.144 47.6768C296.144 47.3398 296.418 47.0666 296.755 47.0666H301.636C301.973 47.0666 302.246 47.3398 302.246 47.6768C302.246 48.0137 301.973 48.2869 301.636 48.2869Z" fill="#67B9CC"/>
<path d="M299.195 50.7271H283.331C282.994 50.7271 282.721 50.454 282.721 50.117C282.721 49.78 282.994 49.5068 283.331 49.5068H299.195C299.532 49.5068 299.805 49.78 299.805 50.117C299.805 50.454 299.532 50.7271 299.195 50.7271Z" fill="#67B9CC"/>
<path d="M280.891 50.7271H270.518C270.181 50.7271 269.908 50.454 269.908 50.117C269.908 49.78 270.181 49.5068 270.518 49.5068H280.891C281.228 49.5068 281.501 49.78 281.501 50.117C281.501 50.454 281.228 50.7271 280.891 50.7271Z" fill="#67B9CC"/>
<path d="M297.365 27.5423H283.942C283.605 27.5423 283.331 27.2692 283.331 26.9322C283.331 26.5952 283.605 26.322 283.942 26.322H297.365C297.702 26.322 297.975 26.5952 297.975 26.9322C297.975 27.2692 297.702 27.5423 297.365 27.5423Z" fill="#ECF0F1"/>
<path d="M284.96 34.998L270.64 44.5467C270.498 44.2528 270.481 43.9142 270.591 43.6071L277.047 25.3028C277.119 25.1011 277.243 24.9221 277.407 24.7842L284.96 34.998Z" fill="#F0C419"/>
<path d="M298.994 44.9616C298.778 45.1404 298.506 45.2376 298.225 45.2362H271.739C271.27 45.2374 270.843 44.9691 270.641 44.5467L284.961 34.998L286.297 36.8101C286.685 37.337 287.42 37.4635 287.963 37.0969L291.453 34.7295L298.994 44.9616Z" fill="#F29C1F"/>
<path d="M305.834 26.121L299.378 44.4253C299.303 44.6369 299.17 44.823 298.994 44.9622L291.453 34.7301L305.718 25.0654C305.919 25.3801 305.961 25.7703 305.834 26.121Z" fill="#F0C419"/>
<rect x="168.811" y="0.75" width="67.4081" height="67.4081" rx="33.704" fill="white" stroke="#E8E9ED" stroke-width="1.5"/>
<path d="M195.91 81.352C195.91 80.872 195.566 80.584 195.022 80.584H193.918V82.088H195.046C195.59 82.088 195.91 81.824 195.91 81.352ZM195.774 79.024C195.774 78.576 195.47 78.32 194.942 78.32H193.918V79.72H194.942C195.47 79.72 195.774 79.48 195.774 79.024ZM197.046 81.488C197.046 82.376 196.366 83 195.206 83H192.798V77.416H195.102C196.27 77.416 196.918 78.024 196.918 78.856C196.918 79.536 196.51 79.96 195.966 80.136C196.598 80.248 197.046 80.832 197.046 81.488ZM202.219 80.784C202.219 82.176 201.195 83.072 199.907 83.072C198.627 83.072 197.659 82.176 197.659 80.784C197.659 79.384 198.659 78.496 199.939 78.496C201.219 78.496 202.219 79.384 202.219 80.784ZM198.795 80.784C198.795 81.664 199.307 82.096 199.907 82.096C200.499 82.096 201.067 81.664 201.067 80.784C201.067 79.896 200.515 79.472 199.923 79.472C199.331 79.472 198.795 79.896 198.795 80.784ZM202.752 80.768C202.752 79.384 203.648 78.496 204.784 78.496C205.368 78.496 205.928 78.768 206.232 79.184V77.08H207.368V83H206.232V82.344C205.968 82.752 205.472 83.072 204.776 83.072C203.648 83.072 202.752 82.152 202.752 80.768ZM206.24 80.784C206.24 79.944 205.68 79.48 205.064 79.48C204.464 79.48 203.896 79.928 203.896 80.768C203.896 81.608 204.464 82.088 205.064 82.088C205.68 82.088 206.24 81.624 206.24 80.784ZM210.35 81.664L211.51 78.568H212.702L209.958 85.096H208.766L209.726 82.888L207.95 78.568H209.206L210.35 81.664ZM176.553 89.2C176.553 87.528 177.777 86.344 179.385 86.344C180.625 86.344 181.633 87.008 182.009 88.152H180.721C180.457 87.616 179.977 87.352 179.377 87.352C178.401 87.352 177.705 88.064 177.705 89.2C177.705 90.328 178.401 91.048 179.377 91.048C179.977 91.048 180.457 90.784 180.721 90.24H182.009C181.633 91.392 180.625 92.048 179.385 92.048C177.777 92.048 176.553 90.872 176.553 89.2ZM187.246 89.784C187.246 91.176 186.222 92.072 184.934 92.072C183.654 92.072 182.686 91.176 182.686 89.784C182.686 88.384 183.686 87.496 184.966 87.496C186.246 87.496 187.246 88.384 187.246 89.784ZM183.822 89.784C183.822 90.664 184.334 91.096 184.934 91.096C185.526 91.096 186.094 90.664 186.094 89.784C186.094 88.896 185.542 88.472 184.95 88.472C184.358 88.472 183.822 88.896 183.822 89.784ZM194.268 92V89.552C194.268 88.848 193.876 88.48 193.284 88.48C192.684 88.48 192.292 88.848 192.292 89.552V92H191.172V89.552C191.172 88.848 190.78 88.48 190.188 88.48C189.58 88.48 189.188 88.848 189.188 89.552V92H188.068V87.568H189.188V88.104C189.468 87.736 189.94 87.504 190.492 87.504C191.18 87.504 191.748 87.8 192.052 88.352C192.34 87.848 192.924 87.504 193.572 87.504C194.636 87.504 195.388 88.176 195.388 89.4V92H194.268ZM197.57 88.208C197.834 87.832 198.346 87.496 199.034 87.496C200.17 87.496 201.058 88.384 201.058 89.768C201.058 91.152 200.17 92.072 199.034 92.072C198.338 92.072 197.842 91.728 197.57 91.368V94.112H196.45V87.568H197.57V88.208ZM199.914 89.768C199.914 88.928 199.346 88.48 198.738 88.48C198.138 88.48 197.57 88.944 197.57 89.784C197.57 90.624 198.138 91.088 198.738 91.088C199.346 91.088 199.914 90.608 199.914 89.768ZM206.152 89.784C206.152 91.176 205.128 92.072 203.84 92.072C202.56 92.072 201.592 91.176 201.592 89.784C201.592 88.384 202.592 87.496 203.872 87.496C205.152 87.496 206.152 88.384 206.152 89.784ZM202.728 89.784C202.728 90.664 203.24 91.096 203.84 91.096C204.432 91.096 205 90.664 205 89.784C205 88.896 204.448 88.472 203.856 88.472C203.264 88.472 202.728 88.896 202.728 89.784ZM210.414 90.736C210.414 91.496 209.75 92.072 208.67 92.072C207.558 92.072 206.782 91.424 206.734 90.6H207.862C207.902 90.936 208.214 91.192 208.662 91.192C209.102 91.192 209.342 90.992 209.342 90.736C209.342 89.944 206.838 90.448 206.838 88.824C206.838 88.088 207.494 87.496 208.59 87.496C209.662 87.496 210.31 88.08 210.374 88.96H209.302C209.27 88.616 208.998 88.384 208.558 88.384C208.142 88.384 207.926 88.552 207.926 88.808C207.926 89.616 210.382 89.112 210.414 90.736ZM211.333 92V87.568H212.453V92H211.333ZM211.901 87.04C211.501 87.04 211.213 86.752 211.213 86.384C211.213 86.016 211.501 85.728 211.901 85.728C212.293 85.728 212.589 86.016 212.589 86.384C212.589 86.752 212.293 87.04 211.901 87.04ZM213.736 90.624V88.488H213.208V87.568H213.736V86.472H214.864V87.568H215.856V88.488H214.864V90.632C214.864 90.928 214.984 91.056 215.336 91.056H215.856V92H215.152C214.304 92 213.736 91.64 213.736 90.624ZM216.661 92V87.568H217.781V92H216.661ZM217.229 87.04C216.829 87.04 216.541 86.752 216.541 86.384C216.541 86.016 216.829 85.728 217.229 85.728C217.621 85.728 217.917 86.016 217.917 86.384C217.917 86.752 217.621 87.04 217.229 87.04ZM223.168 89.784C223.168 91.176 222.144 92.072 220.856 92.072C219.576 92.072 218.608 91.176 218.608 89.784C218.608 88.384 219.608 87.496 220.888 87.496C222.168 87.496 223.168 88.384 223.168 89.784ZM219.744 89.784C219.744 90.664 220.256 91.096 220.856 91.096C221.448 91.096 222.016 90.664 222.016 89.784C222.016 88.896 221.464 88.472 220.872 88.472C220.28 88.472 219.744 88.896 219.744 89.784ZM227.094 92V89.552C227.094 88.84 226.702 88.456 226.11 88.456C225.502 88.456 225.11 88.84 225.11 89.552V92H223.99V87.568H225.11V88.12C225.398 87.744 225.878 87.504 226.446 87.504C227.477 87.504 228.214 88.176 228.214 89.4V92H227.094Z" fill="#303030"/>
<path d="M214.495 40.2937H211.843H207.079C207.083 40.2174 207.091 40.142 207.091 40.0646V32.6024H198.911V40.0646C198.911 40.142 198.918 40.2174 198.923 40.2937H194.158H191.507C188.643 40.2937 186.321 42.6156 186.321 45.4798V53.4064H219.681V45.4798C219.681 42.6156 217.359 40.2937 214.495 40.2937Z" fill="#FF9F70"/>
<path d="M214.494 40.2938H212.675C215.539 40.2938 217.861 42.6157 217.861 45.4799V53.4065H219.68V45.4799C219.68 42.6157 217.359 40.2938 214.494 40.2938Z" fill="#E18152"/>
<path d="M191.507 40.2938H193.326C190.462 40.2938 188.14 42.6157 188.14 45.4799V53.4065H186.321V45.4799C186.321 42.6157 188.643 40.2938 191.507 40.2938Z" fill="#FFBD8E"/>
<path d="M219.681 53.7264H186.321C186.144 53.7264 186.001 53.5833 186.001 53.4067V45.4802C186.001 42.4442 188.471 39.9743 191.507 39.9743H198.591V32.6027C198.591 32.4263 198.734 32.283 198.911 32.283H207.09C207.267 32.283 207.41 32.4263 207.41 32.6027V39.9743H214.494C217.53 39.9743 220 42.4442 220 45.4802V53.4067C220 53.5833 219.857 53.7264 219.681 53.7264ZM186.64 53.087H219.361V45.4802C219.361 42.7967 217.178 40.6137 214.494 40.6137H207.079C206.991 40.6137 206.906 40.5774 206.846 40.5135C206.786 40.4494 206.754 40.3634 206.76 40.2754L206.764 40.2077C206.767 40.1605 206.771 40.1132 206.771 40.0651V32.9226H199.231V40.0651C199.231 40.1126 199.234 40.1591 199.237 40.2056L199.242 40.2758C199.247 40.3637 199.215 40.4497 199.155 40.5136C199.095 40.5776 199.011 40.6138 198.923 40.6138H191.507C188.824 40.6138 186.64 42.797 186.64 45.4803V53.087Z" fill="#690589"/>
<path d="M187.776 47.9827C187.599 47.9827 187.456 47.8395 187.456 47.663V45.4799C187.456 45.3033 187.599 45.1602 187.776 45.1602C187.952 45.1602 188.096 45.3033 188.096 45.4799V47.663C188.096 47.8395 187.953 47.9827 187.776 47.9827Z" fill="#690589"/>
<path d="M203 37.8821C198.117 37.8821 194.158 33.8717 194.158 28.9249V22.7237C194.158 17.7768 198.117 13.7664 203 13.7664C207.884 13.7664 211.843 17.7768 211.843 22.7237V28.9249C211.843 33.8719 207.884 37.8821 203 37.8821Z" fill="#FF9F70"/>
<path d="M203.001 13.7664C202.661 13.7664 202.326 13.7879 201.996 13.8258C206.406 14.3313 209.833 18.1211 209.833 22.7238V28.925C209.833 33.5276 206.406 37.3175 201.996 37.8231C202.326 37.861 202.661 37.8822 203.001 37.8822C207.884 37.8822 211.843 33.8719 211.843 28.925V22.7237C211.843 17.7768 207.884 13.7664 203.001 13.7664Z" fill="#E18152"/>
<path d="M203 13.7664C203.34 13.7664 203.675 13.7879 204.005 13.8258C199.595 14.3313 196.168 18.1211 196.168 22.7238V28.925C196.168 33.5276 199.595 37.3175 204.005 37.8231C203.675 37.861 203.34 37.8822 203 37.8822C198.117 37.8822 194.158 33.8719 194.158 28.925V22.7237C194.158 17.7768 198.117 13.7664 203 13.7664Z" fill="#FFBD8E"/>
<path d="M203.001 38.201C197.948 38.201 193.838 34.0394 193.838 28.9241V22.7229C193.838 17.6075 197.948 13.446 203.001 13.446C208.052 13.446 212.163 17.6075 212.163 22.7229V28.9241C212.163 34.0394 208.052 38.201 203.001 38.201ZM203.001 14.0854C198.301 14.0854 194.478 17.9602 194.478 22.7229V28.9241C194.478 33.6868 198.301 37.5616 203.001 37.5616C207.7 37.5616 211.523 33.6868 211.523 28.9241V22.7229C211.523 17.9602 207.7 14.0854 203.001 14.0854Z" fill="#690589"/>
<path d="M203.001 28.6441C199.888 28.6441 197.943 25.2747 199.499 22.5793L203.001 16.5146L206.502 22.5794C208.058 25.2749 206.113 28.6441 203.001 28.6441Z" fill="#F4EFED"/>
<path d="M203.001 28.9652C201.423 28.9652 200.011 28.1496 199.222 26.7838C198.434 25.4179 198.434 23.7868 199.222 22.421L202.724 16.3561C202.781 16.2572 202.886 16.1963 203.001 16.1963C203.115 16.1963 203.22 16.2572 203.277 16.3561L206.779 22.421C207.567 23.7868 207.567 25.4179 206.779 26.7838C205.99 28.1498 204.578 28.9652 203.001 28.9652ZM203.001 17.1554L199.776 22.7407C199.103 23.9064 199.103 25.2983 199.776 26.4641C200.449 27.6298 201.654 28.3258 203.001 28.3258C204.347 28.3258 205.552 27.6298 206.225 26.4641C206.898 25.2983 206.898 23.9064 206.225 22.7407L203.001 17.1554Z" fill="#690589"/>
<path d="M201.968 23.809C201.339 23.809 200.826 23.2966 200.826 22.6666C200.826 22.0367 201.339 21.5242 201.968 21.5242C202.598 21.5242 203.111 22.0367 203.111 22.6666C203.111 23.2966 202.598 23.809 201.968 23.809ZM201.968 22.1636C201.691 22.1636 201.465 22.3893 201.465 22.6666C201.465 22.944 201.691 23.1697 201.968 23.1697C202.246 23.1697 202.472 22.944 202.472 22.6666C202.472 22.3893 202.246 22.1636 201.968 22.1636Z" fill="#690589"/>
<path d="M204.033 27.0515C203.403 27.0515 202.89 26.5388 202.89 25.9091C202.89 25.2793 203.403 24.7666 204.033 24.7666C204.663 24.7666 205.175 25.2791 205.175 25.9091C205.175 26.539 204.663 27.0515 204.033 27.0515ZM204.033 25.4059C203.755 25.4059 203.53 25.6316 203.53 25.9089C203.53 26.1862 203.755 26.4119 204.033 26.4119C204.31 26.4119 204.536 26.1862 204.536 25.9089C204.536 25.6316 204.31 25.4059 204.033 25.4059Z" fill="#690589"/>
<path d="M201.7 27.052C201.649 27.052 201.598 27.0398 201.55 27.0144C201.394 26.9314 201.335 26.7379 201.418 26.582L204.019 21.6938C204.102 21.5379 204.296 21.4788 204.451 21.5618C204.607 21.6447 204.666 21.8383 204.583 21.9941L201.982 26.8824C201.925 26.9904 201.814 27.052 201.7 27.052Z" fill="#690589"/>
<path d="M192.215 53.7266C192.039 53.7266 191.896 53.5835 191.896 53.4069V47.6635C191.896 47.4871 192.039 47.3438 192.215 47.3438C192.392 47.3438 192.535 47.4871 192.535 47.6635V53.4069C192.535 53.5835 192.392 53.7266 192.215 53.7266Z" fill="#690589"/>
<path d="M213.786 53.7266C213.61 53.7266 213.467 53.5835 213.467 53.4069V47.6635C213.467 47.4871 213.61 47.3438 213.786 47.3438C213.963 47.3438 214.106 47.4871 214.106 47.6635V53.4069C214.106 53.5835 213.963 53.7266 213.786 53.7266Z" fill="#690589"/>
<rect x="84.7808" y="0.75" width="67.4081" height="67.4081" rx="33.704" fill="white" stroke="#E8E9ED" stroke-width="1.5"/>
<path d="M104.727 79.952H105.615C106.247 79.952 106.527 79.64 106.527 79.144C106.527 78.632 106.247 78.328 105.615 78.328H104.727V79.952ZM107.679 79.144C107.679 79.992 107.103 80.856 105.663 80.856H104.727V83H103.607V77.416H105.663C107.007 77.416 107.679 78.176 107.679 79.144ZM112.754 80.784C112.754 82.176 111.73 83.072 110.442 83.072C109.162 83.072 108.194 82.176 108.194 80.784C108.194 79.384 109.194 78.496 110.474 78.496C111.754 78.496 112.754 79.384 112.754 80.784ZM109.33 80.784C109.33 81.664 109.842 82.096 110.442 82.096C111.034 82.096 111.602 81.664 111.602 80.784C111.602 79.896 111.05 79.472 110.458 79.472C109.866 79.472 109.33 79.896 109.33 80.784ZM117.015 81.736C117.015 82.496 116.351 83.072 115.271 83.072C114.159 83.072 113.383 82.424 113.335 81.6H114.463C114.503 81.936 114.815 82.192 115.263 82.192C115.703 82.192 115.943 81.992 115.943 81.736C115.943 80.944 113.439 81.448 113.439 79.824C113.439 79.088 114.095 78.496 115.191 78.496C116.263 78.496 116.911 79.08 116.975 79.96H115.903C115.871 79.616 115.599 79.384 115.159 79.384C114.743 79.384 114.527 79.552 114.527 79.808C114.527 80.616 116.983 80.112 117.015 81.736ZM118.111 81.624V79.488H117.583V78.568H118.111V77.472H119.239V78.568H120.231V79.488H119.239V81.632C119.239 81.928 119.359 82.056 119.711 82.056H120.231V83H119.527C118.679 83 118.111 82.64 118.111 81.624ZM125.22 78.568V83H124.092V82.44C123.812 82.816 123.324 83.056 122.772 83.056C121.74 83.056 120.996 82.384 120.996 81.168V78.568H122.116V81.008C122.116 81.72 122.508 82.104 123.1 82.104C123.708 82.104 124.092 81.72 124.092 81.008V78.568H125.22ZM127.445 80.792V83H126.325V78.568H127.445V79.256C127.725 78.8 128.189 78.504 128.805 78.504V79.68H128.509C127.845 79.68 127.445 79.936 127.445 80.792ZM131.464 79.416C130.928 79.416 130.504 79.76 130.416 80.368H132.52C132.504 79.784 132.04 79.416 131.464 79.416ZM133.568 81.608C133.328 82.424 132.592 83.072 131.496 83.072C130.208 83.072 129.272 82.176 129.272 80.784C129.272 79.384 130.184 78.496 131.496 78.496C132.776 78.496 133.68 79.368 133.68 80.688C133.68 80.832 133.672 80.976 133.648 81.12H130.408C130.464 81.776 130.912 82.144 131.472 82.144C131.952 82.144 132.216 81.904 132.36 81.608H133.568ZM105.617 92L105.249 90.936H103.025L102.657 92H101.481L103.489 86.408H104.793L106.801 92H105.617ZM104.945 90.04L104.137 87.704L103.329 90.04H104.945ZM110.656 92V89.552C110.656 88.84 110.264 88.456 109.672 88.456C109.064 88.456 108.672 88.84 108.672 89.552V92H107.552V87.568H108.672V88.12C108.96 87.744 109.44 87.504 110.008 87.504C111.04 87.504 111.776 88.176 111.776 89.4V92H110.656ZM112.553 89.768C112.553 88.384 113.449 87.496 114.577 87.496C115.289 87.496 115.777 87.832 116.041 88.2V87.568H117.169V92H116.041V91.352C115.777 91.736 115.273 92.072 114.569 92.072C113.449 92.072 112.553 91.152 112.553 89.768ZM116.041 89.784C116.041 88.944 115.481 88.48 114.865 88.48C114.265 88.48 113.697 88.928 113.697 89.768C113.697 90.608 114.265 91.088 114.865 91.088C115.481 91.088 116.041 90.624 116.041 89.784ZM118.263 92V86.08H119.383V92H118.263ZM122.378 90.664L123.538 87.568H124.73L121.986 94.096H120.794L121.754 91.888L119.978 87.568H121.234L122.378 90.664ZM128.773 90.736C128.773 91.496 128.109 92.072 127.029 92.072C125.917 92.072 125.141 91.424 125.093 90.6H126.221C126.261 90.936 126.573 91.192 127.021 91.192C127.461 91.192 127.701 90.992 127.701 90.736C127.701 89.944 125.197 90.448 125.197 88.824C125.197 88.088 125.853 87.496 126.949 87.496C128.021 87.496 128.669 88.08 128.733 88.96H127.661C127.629 88.616 127.357 88.384 126.917 88.384C126.501 88.384 126.285 88.552 126.285 88.808C126.285 89.616 128.741 89.112 128.773 90.736ZM129.693 92V87.568H130.813V92H129.693ZM130.261 87.04C129.861 87.04 129.573 86.752 129.573 86.384C129.573 86.016 129.861 85.728 130.261 85.728C130.653 85.728 130.949 86.016 130.949 86.384C130.949 86.752 130.653 87.04 130.261 87.04ZM135.359 90.736C135.359 91.496 134.695 92.072 133.615 92.072C132.503 92.072 131.727 91.424 131.679 90.6H132.807C132.847 90.936 133.159 91.192 133.607 91.192C134.047 91.192 134.287 90.992 134.287 90.736C134.287 89.944 131.783 90.448 131.783 88.824C131.783 88.088 132.439 87.496 133.535 87.496C134.607 87.496 135.255 88.08 135.319 88.96H134.247C134.215 88.616 133.943 88.384 133.503 88.384C133.087 88.384 132.871 88.552 132.871 88.808C132.871 89.616 135.327 89.112 135.359 90.736Z" fill="#303030"/>
<path d="M107.48 52.1604H110.143C110.408 50.2677 110.868 48.8663 111.258 47.6825C111.649 46.4921 111.958 45.5518 111.958 44.521C111.958 43.4007 111.667 42.3551 111.33 41.1442C110.88 39.5271 110.32 37.5145 110.22 34.4903C110.218 34.4316 110.264 34.3823 110.322 34.3805C110.38 34.3751 110.43 34.4244 110.432 34.4832C110.532 37.482 111.088 39.481 111.535 41.0872C111.876 42.313 112.171 43.3716 112.171 44.521C112.171 45.5859 111.841 46.5883 111.46 47.7491C110.946 49.3126 110.306 51.2587 110.167 54.2231C110.153 54.5116 110.256 54.7861 110.456 54.9961C110.658 55.2077 110.93 55.3242 111.222 55.3242H125.774C126.068 55.3242 126.341 55.2062 126.543 54.9917C126.745 54.7765 126.847 54.4955 126.829 54.2005C126.648 51.2533 125.832 49.3148 125.177 47.7572C124.688 46.5945 124.266 45.5903 124.266 44.5211C124.266 43.3669 124.482 42.474 124.732 41.4401C125.059 40.0862 125.466 38.401 125.566 35.4138C125.568 35.355 125.618 35.3088 125.676 35.311C125.734 35.3129 125.78 35.3621 125.778 35.4208C125.678 38.4299 125.268 40.1267 124.939 41.4902C124.682 42.5528 124.479 43.3922 124.479 44.5211C124.479 45.5474 124.874 46.4862 125.374 47.6746C125.926 48.9887 126.59 50.5736 126.901 52.7989H128.517C128.842 52.7989 129.144 52.6527 129.346 52.3976C129.547 52.1426 129.62 51.8149 129.545 51.4987L128.325 46.3763C128.207 45.4312 128.181 44.4819 128.247 43.5432L128.868 37.11C129.184 34.5946 128.198 31.7054 125.285 30.9141C124.984 30.8324 124.69 30.7179 124.443 30.6167L123.45 30.2099C122.71 29.9069 122.103 29.348 121.74 28.6358L121.36 27.8916C121.094 27.3702 121.017 26.7682 121.142 26.1967L121.512 24.5018C121.525 24.4445 121.581 24.4083 121.639 24.4206C121.696 24.4331 121.733 24.4898 121.72 24.5473L121.429 25.8805C122.874 25.2974 123.964 24.0775 124.293 22.6531L125.193 18.7305C125.481 17.5223 125.28 16.2763 124.626 15.2212C123.972 14.166 122.947 13.4309 121.737 13.1512C119.271 12.5802 116.786 14.1201 116.198 16.5828L115.283 20.5694C114.949 22.0132 115.358 23.6367 116.324 24.763L116.753 23.3575C116.77 23.3014 116.829 23.2692 116.886 23.2868C116.942 23.304 116.973 23.3634 116.956 23.4196L116.211 25.8622C115.96 26.686 115.412 27.3785 114.667 27.8122L114.27 28.0437C113.672 28.3924 112.991 28.5688 112.297 28.563L111.047 28.5464C109.646 28.5155 108.674 29.2589 108.107 29.8872C107.055 31.0537 106.528 32.7775 106.73 34.3856L107.269 42.0756C107.334 42.9995 107.309 43.9337 107.194 44.8526L106.432 50.9742C106.395 51.2744 106.488 51.5767 106.689 51.8035C106.889 52.0302 107.177 52.1604 107.48 52.1604ZM118.611 55.2043C118.611 55.2631 118.563 55.3107 118.504 55.3107C118.446 55.3107 118.398 55.2631 118.398 55.2043V53.0788C118.398 53.02 118.446 52.9724 118.504 52.9724C118.563 52.9724 118.611 53.02 118.611 53.0788V55.2043Z" fill="#FFE0C9"/>
<path d="M115.183 21.5835C115.179 21.5821 115.174 21.5829 115.17 21.5822C115.17 21.7051 115.173 21.8282 115.182 21.951L115.253 21.7163C115.271 21.6601 115.239 21.6006 115.183 21.5835Z" fill="black"/>
<path d="M123.491 17.0271L122.591 20.9497C122.388 21.8246 121.898 22.6163 121.239 23.2224C120.928 23.5088 120.559 23.6691 120.235 23.9125C119.898 24.165 119.685 24.7031 119.602 25.0986C119.352 26.2868 119.673 27.6234 120.382 28.6186C120.984 29.4637 122.018 30.0588 123.045 29.906C122.888 29.9294 122.401 29.2929 122.302 29.1749C122.059 28.8853 121.846 28.5709 121.666 28.2383C121.329 27.6158 120.987 26.9078 121.142 26.1961L121.513 24.5013C121.525 24.444 121.582 24.4078 121.64 24.4201C121.697 24.4325 121.733 24.4893 121.721 24.5468L121.429 25.88C122.875 25.2969 123.964 24.077 124.294 22.6526L125.194 18.73C125.482 17.5217 125.281 16.2758 124.627 15.2206C124.214 14.5549 123.653 14.0175 122.992 13.6405C123.588 14.6692 123.768 15.8647 123.491 17.0271Z" fill="#FFBA9C"/>
<path d="M129.545 51.4972L128.326 46.3748C128.208 45.4297 128.182 44.4803 128.248 43.5417L128.869 37.1085C129.139 34.9584 128.457 32.5363 126.434 31.3837C127.125 32.5725 127.337 34.0435 127.166 35.4056L126.545 41.8388C126.479 42.7775 126.505 43.7268 126.623 44.6719L127.843 49.7943C127.918 50.1105 127.845 50.4382 127.644 50.6932C127.442 50.9483 127.141 51.0945 126.816 51.0945H126.573C126.703 51.619 126.816 52.183 126.902 52.7974H128.518C128.843 52.7974 129.145 52.6511 129.347 52.3961C129.548 52.141 129.621 51.8133 129.545 51.4972Z" fill="#FFBA9C"/>
<path d="M126.534 51.4812C126.471 50.5429 125.81 49.4973 125.451 48.6326C125.117 47.8263 124.78 47.0145 124.596 46.161C124.204 44.3411 124.526 42.4483 124.928 40.6304C125.195 39.4199 125.499 38.2135 125.652 36.9813C125.713 36.4913 125.999 35.7372 125.367 35.5253C125.13 35.4455 124.869 35.4828 124.641 35.5874C123.944 35.9074 123.665 36.5263 123.552 37.2227C123.415 38.069 123.231 38.9036 123.03 39.7368C122.78 40.7707 122.564 41.6636 122.564 42.8178C122.564 43.887 122.986 44.8911 123.475 46.0539C124.023 47.3559 124.683 48.924 124.99 51.1248C125.049 51.5467 125.095 51.9918 125.125 52.4627C125.142 52.734 125.068 53.0104 124.898 53.2224C124.693 53.4785 124.395 53.6209 124.072 53.6209H118.612V55.2039C118.612 55.2627 118.564 55.3103 118.505 55.3103C118.447 55.3103 118.399 55.2627 118.399 55.2039V53.6209H114.879C113.387 53.6209 111.956 54.2136 110.901 55.2686C111.004 55.3016 111.111 55.3238 111.223 55.3238H125.739C126.011 55.3238 126.281 55.235 126.482 55.0518C126.725 54.8302 126.849 54.5235 126.83 54.2001C126.83 53.2901 126.596 52.3839 126.534 51.4812Z" fill="#FFBA9C"/>
<path d="M107.322 52.1472C107.375 52.1552 107.427 52.1607 107.481 52.1607H110.144C110.181 51.5574 110.487 50.9998 110.56 50.4774C109.556 50.4774 108.593 50.8763 107.883 51.5862L107.322 52.1472Z" fill="#FFBA9C"/>
<path d="M122.364 25.3541L122.357 25.3863C122.408 25.3518 122.458 25.3167 122.508 25.2805C122.502 25.278 122.497 25.2743 122.491 25.2729C122.433 25.2606 122.376 25.2968 122.364 25.3541Z" fill="#FFE0C9"/>
<path d="M116.43 24.4134C116.025 23.4756 115.906 22.4064 116.134 21.4209L117.049 17.4342C117.637 14.9715 120.122 13.4316 122.588 14.0026C123.248 14.1551 123.849 14.447 124.369 14.8481C123.718 13.9929 122.798 13.3966 121.737 13.1512C119.271 12.5802 116.786 14.1201 116.198 16.5828L115.283 20.5694C114.949 22.0132 115.358 23.6367 116.324 24.763L116.43 24.4134Z" fill="white"/>
<path d="M110.492 51.2322L110.365 52.3223C110.307 52.8928 110.266 53.5002 110.254 54.1652C110.252 54.2802 110.264 54.396 110.289 54.5081C110.398 54.3998 110.512 54.2239 110.628 54.0301C111.009 53.3943 111.246 52.6843 111.349 51.9502C111.599 50.1592 112.029 49.0984 112.419 47.9111C112.801 46.7503 113.13 45.7478 113.13 44.683C113.13 43.5336 112.836 42.4749 112.495 41.2491C112.093 39.8035 111.602 38.0398 111.435 35.5154C111.398 34.9579 111.018 34.4799 110.478 34.3345C110.402 34.314 110.353 34.3059 110.354 34.3186C110.455 37.3428 111.061 39.6891 111.511 41.3062C111.848 42.517 112.279 43.3015 112.279 44.4218C112.279 45.4525 111.954 46.1348 111.562 47.3253C111.173 48.5091 110.757 49.3396 110.492 51.2322Z" fill="white"/>
<path d="M117.413 23.9875C117.382 23.7707 117.305 23.5171 117.047 23.5034C116.868 23.4939 116.707 23.6219 116.647 23.7912C116.42 24.4308 116.252 25.0841 116.075 25.7415C115.888 26.4337 115.467 27.0494 114.89 27.4751L114.343 28.0173C113.784 28.4299 113.092 28.6478 112.398 28.6397L111.587 28.6266C110.406 28.5991 108.689 29.362 107.915 30.2194C107 31.2348 106.568 32.7548 106.76 34.2854L107.3 41.9754C107.365 42.8993 107.339 43.8336 107.225 44.7524L106.463 50.874C106.436 51.0957 106.48 51.3184 106.585 51.5112C106.657 51.4392 106.732 51.3422 106.809 51.2327C107.273 50.569 107.555 49.7946 107.655 48.9907L108.076 45.6035C108.191 44.6826 108.216 43.7527 108.151 42.8268L107.612 35.1368C107.42 33.6063 107.851 32.0862 108.767 31.0708C109.54 30.2134 111.258 29.4505 112.438 29.4781L113.25 29.4912C113.944 29.4993 114.308 29.3853 114.867 28.9726C114.867 28.9726 115.742 28.3266 115.742 28.3266C117.008 27.3919 117.631 25.5105 117.413 23.9875Z" fill="white"/>
<path d="M118.505 55.5212C118.328 55.5212 118.186 55.3783 118.186 55.2019V53.0764C118.186 52.9 118.328 52.7571 118.505 52.7571C118.681 52.7571 118.824 52.9 118.824 53.0764V55.2019C118.824 55.3783 118.681 55.5212 118.505 55.5212ZM118.505 51.2685C118.328 51.2685 118.186 51.1256 118.186 50.9492V48.8217C118.186 48.6453 118.328 48.5024 118.505 48.5024C118.681 48.5024 118.824 48.6453 118.824 48.8217V50.9492C118.824 51.1256 118.681 51.2685 118.505 51.2685ZM118.471 47.0134C118.301 47.0134 118.16 46.8799 118.152 46.7087C118.122 46.0413 118.07 45.3528 117.995 44.6039C117.978 44.4284 118.106 44.2719 118.281 44.2543C118.456 44.2375 118.613 44.3647 118.631 44.5403C118.707 45.3008 118.759 46.0005 118.79 46.6795C118.798 46.8556 118.662 47.005 118.486 47.0131C118.481 47.0133 118.476 47.0134 118.471 47.0134ZM118.062 42.7779C117.905 42.7779 117.768 42.6613 117.746 42.5009C117.673 41.9547 117.597 41.4125 117.52 40.8726L117.453 40.3959C117.429 40.2212 117.55 40.0597 117.725 40.0352C117.899 40.0106 118.061 40.1322 118.086 40.3069L118.153 40.7832C118.229 41.3248 118.306 41.8687 118.379 42.4164C118.402 42.5913 118.28 42.7518 118.105 42.7751C118.091 42.777 118.076 42.7779 118.062 42.7779ZM117.489 38.5613C117.33 38.5613 117.192 38.4423 117.172 38.2802C117.078 37.4979 117.01 36.8001 116.963 36.1471C116.95 35.9712 117.082 35.8184 117.258 35.8057C117.434 35.7944 117.587 35.9253 117.6 36.1012C117.646 36.744 117.713 37.4318 117.806 38.2039C117.827 38.379 117.703 38.5379 117.527 38.559C117.514 38.5606 117.502 38.5613 117.489 38.5613ZM117.201 34.3169C117.201 34.3169 117.201 34.3169 117.201 34.3169C117.025 34.3168 116.882 34.1738 116.882 33.9976C116.882 33.3094 116.91 32.6299 116.966 31.9778C116.97 31.9328 116.974 31.8863 116.979 31.8385C116.997 31.6632 117.156 31.5364 117.33 31.5544C117.505 31.5728 117.632 31.7299 117.614 31.9053C117.609 31.9485 117.605 31.9907 117.602 32.0316C117.547 32.6751 117.521 33.3182 117.52 33.9978C117.52 34.174 117.377 34.3169 117.201 34.3169ZM117.679 30.0941C117.656 30.0941 117.632 30.0915 117.608 30.0861C117.436 30.047 117.329 29.8759 117.368 29.704C117.506 29.0926 117.68 28.3926 117.885 27.6236C117.93 27.4531 118.105 27.3517 118.275 27.3969C118.446 27.4421 118.547 27.617 118.502 27.7875C118.299 28.549 118.127 29.2414 117.99 29.8454C117.957 29.9936 117.825 30.0941 117.679 30.0941ZM118.763 25.9703C118.734 25.9703 118.705 25.9662 118.675 25.9577C118.505 25.9088 118.408 25.7319 118.457 25.5625C118.797 24.3811 119.065 23.5172 119.068 23.5087C119.121 23.3403 119.3 23.2462 119.468 23.2987C119.636 23.3511 119.73 23.5301 119.678 23.6985C119.675 23.707 119.408 24.5648 119.07 25.7392C119.03 25.8792 118.902 25.9703 118.763 25.9703Z" fill="#540000"/>
<path d="M122.584 34.1996C122.568 34.1996 122.552 34.1984 122.536 34.1958L120.432 33.8728C120.257 33.8461 120.138 33.6831 120.165 33.5088C120.191 33.3345 120.354 33.2143 120.529 33.2417L122.632 33.5647C122.807 33.5915 122.926 33.7544 122.9 33.9287C122.875 34.0866 122.739 34.1996 122.584 34.1996ZM118.377 33.5534C118.36 33.5534 118.344 33.5523 118.328 33.5497L116.224 33.2265C116.049 33.1998 115.93 33.0369 115.957 32.8626C115.983 32.6883 116.146 32.5679 116.321 32.5955L118.425 32.9186C118.599 32.9453 118.719 33.1083 118.692 33.2826C118.667 33.4404 118.531 33.5534 118.377 33.5534ZM114.169 32.9073C114.153 32.9073 114.136 32.9061 114.12 32.9035L112.016 32.5804C111.842 32.5537 111.722 32.3907 111.749 32.2164C111.776 32.0421 111.939 31.9215 112.113 31.9493L114.217 32.2724C114.391 32.2991 114.511 32.4621 114.484 32.6364C114.46 32.7943 114.324 32.9073 114.169 32.9073Z" fill="#540000"/>
<path d="M110.237 52.5843H107.48C107.056 52.5843 106.651 52.4018 106.37 52.0836C106.089 51.7653 105.958 51.3412 106.01 50.9198L106.772 44.7983C106.883 43.9066 106.907 43 106.845 42.1037L106.306 34.4195C106.091 32.7095 106.659 30.8563 107.791 29.6003C108.676 28.6189 109.832 28.0936 111.056 28.119L112.303 28.1355C112.913 28.1408 113.524 27.984 114.056 27.6741L114.453 27.4426C115.105 27.0631 115.584 26.457 115.804 25.7362L116.549 23.2937C116.601 23.1249 116.78 23.0298 116.948 23.0814C117.117 23.1329 117.212 23.3113 117.16 23.4799L116.415 25.9225C116.148 26.7977 115.566 27.5336 114.775 27.9943L114.378 28.2258C113.746 28.594 113.023 28.7824 112.294 28.774L111.045 28.7575C109.723 28.7245 108.802 29.4326 108.266 30.0279C107.254 31.1499 106.747 32.8089 106.941 34.3573L107.482 42.059C107.547 42.9965 107.522 43.9446 107.406 44.877L106.644 50.9987C106.614 51.2385 106.689 51.4797 106.849 51.6608C107.009 51.8419 107.239 51.9458 107.48 51.9458H110.237C110.413 51.9458 110.556 52.0887 110.556 52.265C110.556 52.4414 110.413 52.5843 110.237 52.5843Z" fill="#540000"/>
<path d="M128.518 53.2236H126.809C126.633 53.2236 126.49 53.0807 126.49 52.9044C126.49 52.728 126.633 52.5851 126.809 52.5851H128.518C128.777 52.5851 129.018 52.4682 129.179 52.2646C129.34 52.061 129.398 51.7994 129.338 51.547L128.118 46.4245C128.115 46.4132 128.113 46.4017 128.112 46.3901C127.994 45.4428 127.968 44.4797 128.035 43.5274L128.656 37.0885C128.961 34.6584 128.019 31.8763 125.229 31.1186C124.917 31.0338 124.616 30.9163 124.363 30.8126L123.369 30.4058C122.583 30.0836 121.937 29.489 121.55 28.7315L121.171 27.9874C120.882 27.4222 120.798 26.7697 120.934 26.1501L121.304 24.4554C121.342 24.283 121.512 24.1738 121.685 24.2116C121.857 24.2493 121.966 24.4195 121.928 24.5917L121.558 26.2866C121.454 26.7623 121.518 27.2633 121.74 27.6973L122.119 28.4414C122.436 29.0628 122.966 29.5506 123.611 29.8149L124.604 30.2217C124.84 30.318 125.118 30.4267 125.396 30.5023C128.556 31.3606 129.629 34.464 129.291 37.159L128.671 43.5804C128.608 44.4776 128.633 45.3931 128.744 46.2939L129.959 51.3992C130.064 51.8429 129.963 52.3026 129.68 52.6605C129.397 53.0184 128.974 53.2236 128.518 53.2236Z" fill="#540000"/>
<path d="M126.035 55.5823H111.483C111.079 55.5823 110.688 55.4146 110.409 55.1223C110.127 54.8273 109.983 54.4413 110.002 54.0355C110.144 51.0132 110.794 49.0366 111.316 47.4485C111.701 46.276 112.006 45.35 112.006 44.3534C112.006 43.2622 111.718 42.2294 111.386 41.0336C110.933 39.4056 110.369 37.3794 110.267 34.3297C110.261 34.1536 110.399 34.0059 110.576 34.0001C110.745 33.9944 110.9 34.1322 110.905 34.3085C111.005 37.2818 111.557 39.2672 112.001 40.8625C112.346 42.1033 112.644 43.175 112.644 44.3534C112.644 45.4523 112.31 46.4697 111.922 47.6478C111.412 49.1993 110.778 51.1301 110.64 54.0655C110.629 54.2953 110.711 54.5141 110.871 54.6815C111.032 54.8506 111.249 54.9437 111.483 54.9437H126.035C126.269 54.9437 126.487 54.8495 126.648 54.6783C126.81 54.5063 126.891 54.2817 126.877 54.0458C126.698 51.1348 125.891 49.2149 125.242 47.6721C124.744 46.4881 124.314 45.4656 124.314 44.3534C124.314 43.1739 124.532 42.2695 124.785 41.2225C125.11 39.8779 125.515 38.2046 125.614 35.2391C125.619 35.0628 125.767 34.9246 125.943 34.9306C126.119 34.9364 126.258 35.0841 126.252 35.2603C126.151 38.291 125.738 39.9996 125.406 41.3726C125.152 42.4215 124.952 43.25 124.952 44.3534C124.952 45.3369 125.34 46.2582 125.83 47.4245C126.498 49.0119 127.329 50.9874 127.514 54.0068C127.539 54.4142 127.393 54.8184 127.113 55.1158C126.83 55.4166 126.447 55.5823 126.035 55.5823Z" fill="#540000"/>
<path d="M121.283 26.3727C121.152 26.3727 121.03 26.2915 120.983 26.1611C120.923 25.9951 121.01 25.8123 121.176 25.7527C122.644 25.226 123.76 24.0202 124.087 22.606L124.987 18.6837C125.262 17.5293 125.07 16.3406 124.446 15.3341C123.823 14.3275 122.844 13.6261 121.69 13.3593C119.337 12.815 116.967 14.2837 116.406 16.633L115.491 20.6178C115.159 22.0557 115.596 23.6813 116.604 24.7597C116.725 24.8885 116.718 25.0905 116.589 25.211C116.46 25.3317 116.258 25.3246 116.138 25.1958C114.988 23.9665 114.49 22.1132 114.869 20.4745L115.784 16.4874C116.427 13.7954 119.14 12.1141 121.834 12.7372C123.155 13.0426 124.275 13.8454 124.989 14.9978C125.703 16.1501 125.923 17.5108 125.608 18.8292L124.709 22.7493C124.333 24.3735 123.062 25.7545 121.391 26.3539C121.356 26.3667 121.319 26.3727 121.283 26.3727Z" fill="#540000"/>
<path d="M121.282 26.3725C121.147 26.3725 121.022 26.2869 120.978 26.152C120.924 25.9843 121.015 25.8042 121.183 25.7495C122.634 25.2769 123.746 24.0722 124.085 22.6058C124.125 22.4339 124.296 22.327 124.468 22.3667C124.64 22.4064 124.747 22.5779 124.707 22.7497C124.318 24.433 123.043 25.8151 121.381 26.3567C121.348 26.3674 121.315 26.3725 121.282 26.3725Z" fill="#540000"/>
</svg>
