<svg width="108" height="40" viewBox="0 0 108 40" fill="none" xmlns="http://www.w3.org/2000/svg">
<path d="M29.3646 23.103C28.8454 23.103 28.3356 23.09 27.8354 23.0641C27.3966 23.0485 26.95 23.0251 26.5009 23.0044L25.1715 22.9446C24.5328 22.9239 23.8967 22.9161 23.284 22.9187C22.8478 22.9187 22.3623 22.9472 21.8924 22.9758L21.316 23.007C21.2468 23.0102 21.1776 22.9998 21.1124 22.9763C21.0472 22.9528 20.9873 22.9167 20.9361 22.87C20.8848 22.8234 20.8433 22.7671 20.8138 22.7044C20.7843 22.6417 20.7675 22.5738 20.7642 22.5046C20.761 22.4354 20.7714 22.3662 20.7949 22.301C20.8184 22.2358 20.8545 22.1759 20.9012 22.1247C20.9478 22.0734 21.0041 22.0319 21.0668 22.0024C21.1295 21.9729 21.1974 21.9561 21.2666 21.9528L21.8326 21.9217C22.3156 21.8957 22.8141 21.8672 23.2788 21.8646C23.9071 21.8646 24.5536 21.8646 25.2105 21.8905C25.6622 21.9087 26.1062 21.9295 26.5528 21.9528C26.9994 21.9762 27.4381 21.9944 27.8821 22.01C29.7212 22.0712 31.5623 22.0296 33.3967 21.8853C34.9779 21.7919 36.6136 21.6958 38.2389 21.7296H38.309C38.5985 21.7684 38.8836 21.8345 39.1606 21.9269C39.2921 21.9741 39.3995 22.0715 39.4592 22.1979C39.5188 22.3242 39.5258 22.4691 39.4787 22.6006C39.4315 22.7322 39.334 22.8396 39.2077 22.8992C39.0813 22.9588 38.9364 22.9659 38.8049 22.9187C38.6011 22.8527 38.3917 22.8057 38.1792 22.7785C36.6084 22.7447 35.0065 22.8408 33.4591 22.9343C32.1167 23.0199 30.7407 23.103 29.3646 23.103Z" fill="#414042"/>
<path d="M1.55703 23.2869C1.4248 23.3046 1.29082 23.2708 1.18287 23.1924C1.07492 23.114 1.00129 22.9971 0.977253 22.8658C0.953211 22.7346 0.980601 22.5992 1.05374 22.4876C1.12688 22.376 1.24016 22.2969 1.37009 22.2666L1.5726 22.1887C1.95928 22.0157 2.36977 21.902 2.79029 21.8511C3.14858 21.8252 3.4887 21.8096 3.82882 21.7992C6.74192 21.7057 9.69136 21.8252 12.5447 21.9394C13.643 21.9836 14.7386 22.0277 15.8343 22.0614C16.486 22.0614 17.1507 22.0614 17.8153 22.0848L19.5211 22.0303C20.0975 22.0095 20.6713 21.9836 21.2477 21.955C21.3159 21.9514 21.3841 21.9613 21.4485 21.9841C21.5128 22.0069 21.5721 22.0421 21.6228 22.0878C21.6736 22.1335 21.7148 22.1887 21.7442 22.2504C21.7736 22.312 21.7906 22.3788 21.7942 22.447C21.7978 22.5152 21.7879 22.5834 21.7651 22.6478C21.7423 22.7122 21.7071 22.7714 21.6614 22.8222C21.6157 22.8729 21.5605 22.9142 21.4988 22.9436C21.4372 22.973 21.3704 22.99 21.3022 22.9935C20.7206 23.0247 20.1416 23.0481 19.5601 23.0688L17.8179 23.1259C17.1351 23.1234 16.4704 23.1234 15.8109 23.1234C14.6997 23.0896 13.5989 23.0455 12.498 23.0013C9.6628 22.8845 6.72894 22.7651 3.85738 22.8611C3.53025 22.8611 3.20311 22.8845 2.86299 22.9079C2.54868 22.9519 2.242 23.0393 1.95167 23.1675L1.73877 23.2506C1.68086 23.2735 1.6193 23.2858 1.55703 23.2869Z" fill="#414042"/>
<path d="M13.6407 25.2576C13.562 25.2584 13.4842 25.2412 13.4131 25.2075C13.3421 25.1737 13.2796 25.1243 13.2305 25.0629C13.186 25.0097 13.1526 24.9482 13.1322 24.8819C13.1119 24.8157 13.105 24.746 13.112 24.677C13.1191 24.6081 13.1398 24.5412 13.1731 24.4804C13.2064 24.4196 13.2515 24.366 13.3057 24.3229C13.7939 23.9341 14.3027 23.5718 14.8298 23.2377L15.1517 23.0274C15.5542 22.7677 15.9618 22.5081 16.3642 22.2225C16.4785 22.1423 16.62 22.1108 16.7576 22.1349C16.8951 22.159 17.0175 22.2367 17.0977 22.351C17.1779 22.4653 17.2094 22.6068 17.1853 22.7444C17.1612 22.8819 17.0835 23.0043 16.9692 23.0845C16.5538 23.3753 16.1384 23.6453 15.7255 23.9127L15.4062 24.1204C14.9104 24.4335 14.432 24.7733 13.973 25.1382C13.8796 25.2156 13.762 25.2579 13.6407 25.2576Z" fill="#414042"/>
<path d="M5.88293 27.017C5.76499 27.0246 5.64796 26.9918 5.55119 26.924C5.45443 26.8561 5.3837 26.7573 5.35072 26.6438C5.31773 26.5303 5.32444 26.4089 5.36976 26.2997C5.41507 26.1906 5.49627 26.1001 5.59993 26.0434C6.37883 25.5475 7.01234 24.8075 7.677 24.0234C7.9626 23.6859 8.25858 23.3354 8.57274 23.0057C8.77566 22.7899 8.99342 22.5886 9.22442 22.4033C9.31789 22.3254 9.41396 22.2449 9.50742 22.1618C9.61071 22.0689 9.7467 22.0208 9.88547 22.0281C10.0242 22.0354 10.1544 22.0975 10.2474 22.2008C10.3403 22.3041 10.3885 22.4401 10.3812 22.5788C10.3739 22.7176 10.3117 22.8478 10.2084 22.9407C10.1072 23.0316 10.0033 23.1199 9.90207 23.2004C9.70496 23.3612 9.51849 23.5347 9.34386 23.7197C9.04528 24.0364 8.75708 24.3765 8.47927 24.7037C7.79124 25.5111 7.08244 26.3497 6.16074 26.9313C6.07788 26.9851 5.98169 27.0148 5.88293 27.017Z" fill="#414042"/>
<path d="M2.53937 25.7737C2.42368 25.78 2.30922 25.7473 2.21422 25.681C2.11922 25.6147 2.04912 25.5185 2.01509 25.4077C1.98106 25.297 1.98505 25.178 2.02642 25.0698C2.06779 24.9616 2.14416 24.8703 2.24339 24.8105C2.43309 24.6838 2.60063 24.5268 2.73929 24.3457C2.83861 24.2074 2.92549 24.0606 2.99893 23.907C3.17428 23.5285 3.32264 23.138 3.4429 22.7386C3.50521 22.5543 3.56493 22.3699 3.62984 22.1908C3.65319 22.1257 3.68915 22.0658 3.73564 22.0145C3.78214 21.9633 3.83828 21.9217 3.90084 21.8922C3.9634 21.8627 4.03117 21.8458 4.10028 21.8424C4.16938 21.8391 4.23846 21.8494 4.30359 21.8727C4.36871 21.8961 4.42859 21.932 4.47982 21.9785C4.53105 22.025 4.57262 22.0812 4.60215 22.1437C4.63169 22.2063 4.64861 22.2741 4.65195 22.3432C4.65529 22.4123 4.64499 22.4814 4.62164 22.5465C4.55933 22.7178 4.50221 22.8944 4.44509 23.0657C4.30782 23.5097 4.13951 23.9435 3.9414 24.3639C3.83673 24.5753 3.71334 24.7769 3.57272 24.9663C3.3648 25.2388 3.11297 25.4748 2.82757 25.6647C2.74475 25.7294 2.64426 25.7674 2.53937 25.7737Z" fill="#414042"/>
<path d="M26.9455 25.3249C26.8881 25.3241 26.8312 25.3144 26.7767 25.2963C26.135 25.0613 25.5738 24.6479 25.1592 24.1046C24.736 23.5853 24.4296 23.2011 24.1051 22.7363C24.0249 22.6217 23.9935 22.4799 24.0178 22.3421C24.0422 22.2043 24.1202 22.0818 24.2349 22.0016C24.3495 21.9213 24.4914 21.89 24.6292 21.9143C24.767 21.9386 24.8894 22.0167 24.9697 22.1314C25.276 22.5702 25.5642 22.9466 25.9693 23.4296C26.2603 23.822 26.6576 24.1229 27.1142 24.2967C27.252 24.3191 27.3751 24.3953 27.4567 24.5085C27.5383 24.6217 27.5715 24.7627 27.5491 24.9004C27.5267 25.0381 27.4506 25.1613 27.3374 25.2428C27.2242 25.3244 27.0832 25.3576 26.9455 25.3353V25.3249Z" fill="#414042"/>
<path d="M34.7005 26.783C34.6458 26.7833 34.5914 26.7745 34.5395 26.757C33.1687 26.3131 32.4832 24.9967 31.8783 23.8362C31.7666 23.6207 31.655 23.4078 31.5408 23.2027C31.5067 23.1421 31.4848 23.0755 31.4765 23.0065C31.4681 22.9376 31.4735 22.8676 31.4922 22.8007C31.5108 22.7338 31.5425 22.6713 31.5854 22.6166C31.6282 22.5619 31.6815 22.5163 31.742 22.4822C31.8025 22.4481 31.8691 22.4262 31.9381 22.4179C32.0071 22.4095 32.077 22.4149 32.1439 22.4336C32.2108 22.4522 32.2734 22.4839 32.328 22.5268C32.3827 22.5697 32.4284 22.6229 32.4625 22.6834C32.5793 22.8963 32.6961 23.117 32.813 23.3403C33.3738 24.4177 33.9034 25.4355 34.8641 25.7471C35.0018 25.7688 35.1253 25.8443 35.2073 25.957C35.2893 26.0697 35.3232 26.2104 35.3016 26.3481C35.2799 26.4858 35.2044 26.6093 35.0916 26.6913C34.9789 26.7734 34.8382 26.8073 34.7005 26.7856V26.783Z" fill="#414042"/>
<path d="M38.2964 26.8124C38.1829 26.8122 38.0725 26.7748 37.9823 26.7059C36.9256 25.927 36.884 24.6548 36.8503 23.541C36.8452 23.2042 36.8227 22.868 36.7828 22.5336C36.7729 22.4654 36.7765 22.3959 36.7935 22.3291C36.8104 22.2624 36.8404 22.1996 36.8816 22.1444C36.9228 22.0891 36.9745 22.0426 37.0338 22.0074C37.093 21.9721 37.1586 21.9489 37.2268 21.939C37.2949 21.9291 37.3644 21.9328 37.4312 21.9497C37.498 21.9667 37.5608 21.9966 37.616 22.0379C37.6712 22.0791 37.7177 22.1308 37.753 22.19C37.7882 22.2492 37.8114 22.3148 37.8213 22.383C37.8671 22.7561 37.8931 23.1314 37.8992 23.5072C37.9278 24.4705 37.9563 25.3766 38.608 25.8621C38.7026 25.9253 38.7739 26.0179 38.8108 26.1256C38.8477 26.2333 38.8481 26.3501 38.8121 26.4581C38.7762 26.566 38.7057 26.6592 38.6116 26.7232C38.5174 26.7872 38.4049 26.8186 38.2912 26.8124H38.2964Z" fill="#414042"/>
<path d="M5.3333 31.7793C5.23641 31.7821 5.14067 31.7578 5.05689 31.709C4.97312 31.6603 4.90467 31.589 4.85928 31.5034C4.81389 31.4178 4.79338 31.3211 4.80007 31.2244C4.80675 31.1277 4.84037 31.0348 4.89711 30.9562C6.03583 29.2913 7.57626 27.9406 9.37576 27.0293C11.1753 26.118 13.1756 25.6755 15.1916 25.7428C15.9737 25.6916 16.7506 25.5796 17.5153 25.4079C18.2931 25.2475 19.0235 24.9099 19.6495 24.4213C20.2583 23.9775 20.6766 23.3199 20.8205 22.5805C20.8331 22.5123 20.859 22.4472 20.8968 22.389C20.9345 22.3309 20.9834 22.2807 21.0405 22.2414C21.0976 22.2021 21.1619 22.1745 21.2298 22.16C21.2976 22.1456 21.3676 22.1446 21.4358 22.1572C21.504 22.1699 21.569 22.1958 21.6272 22.2335C21.6854 22.2713 21.7355 22.3201 21.7748 22.3773C21.8141 22.4344 21.8418 22.4987 21.8562 22.5666C21.8707 22.6344 21.8716 22.7044 21.859 22.7726C21.6701 23.7554 21.1222 24.6328 20.322 25.2339C19.5717 25.8297 18.6937 26.2438 17.7568 26.4438C16.9318 26.626 16.0943 26.7457 15.2513 26.8021H15.1838C13.3415 26.7368 11.5125 27.1383 9.86699 27.9695C8.22148 28.8006 6.81285 30.0344 5.77208 31.556C5.72217 31.6256 5.65627 31.6823 5.57991 31.7211C5.50355 31.76 5.41897 31.7799 5.3333 31.7793Z" fill="#414042"/>
<path d="M10.9556 36.7936C10.8698 36.7939 10.7854 36.7729 10.7097 36.7326C10.634 36.6923 10.5695 36.6338 10.522 36.5625C10.1206 35.8879 9.82222 35.1572 9.63661 34.3946C9.47854 33.8319 9.35284 33.2606 9.26014 32.6836V32.6342C9.22052 32.0473 9.25454 31.4576 9.3614 30.8791C9.62104 29.4096 10.3298 27.9323 11.5501 26.3667C11.5927 26.3121 11.6457 26.2665 11.7059 26.2324C11.7662 26.1983 11.8326 26.1764 11.9013 26.168C11.97 26.1596 12.0397 26.1647 12.1064 26.1832C12.1731 26.2017 12.2355 26.2332 12.2901 26.2758C12.3446 26.3184 12.3903 26.3714 12.4243 26.4316C12.4584 26.4919 12.4803 26.5583 12.4888 26.627C12.4972 26.6957 12.492 26.7654 12.4735 26.8321C12.455 26.8988 12.4236 26.9612 12.3809 27.0158C11.2697 28.4412 10.6232 29.7653 10.3999 31.0635C10.3097 31.5486 10.2792 32.043 10.3091 32.5356C10.3932 33.0655 10.505 33.5907 10.644 34.109C10.8048 34.7631 11.0565 35.3914 11.3917 35.9757C11.4473 36.0547 11.4797 36.1475 11.4854 36.2439C11.4912 36.3402 11.4699 36.4363 11.4241 36.5212C11.3782 36.6061 11.3096 36.6766 11.2259 36.7247C11.1423 36.7729 11.0468 36.7967 10.9504 36.7936H10.9556Z" fill="#414042"/>
<path d="M7.46009 34.243H7.3822C7.31345 34.2338 7.24724 34.211 7.18746 34.1758C7.12769 34.1406 7.07558 34.0938 7.03419 34.0381C6.99281 33.9825 6.963 33.9191 6.94651 33.8517C6.93003 33.7843 6.92722 33.7143 6.93823 33.6459C7.08376 32.7678 7.46822 31.9468 8.04946 31.2728C8.43391 30.8098 8.8439 30.3686 9.27753 29.9513L9.69554 29.5307C9.74379 29.4811 9.80133 29.4414 9.86489 29.4141C9.92845 29.3867 9.99677 29.3721 10.066 29.3711C10.1352 29.3702 10.2039 29.3829 10.2682 29.4084C10.3325 29.434 10.3911 29.472 10.4407 29.5203C10.4903 29.5685 10.5299 29.6261 10.5573 29.6896C10.5847 29.7532 10.5992 29.8215 10.6002 29.8907C10.6012 29.9599 10.5885 30.0286 10.5629 30.0929C10.5373 30.1572 10.4993 30.2158 10.4511 30.2654C10.3135 30.4082 10.1681 30.551 10.0227 30.6964C9.61666 31.0867 9.23267 31.4993 8.8725 31.9323C8.41039 32.4586 8.10148 33.1016 7.97936 33.7913C7.96288 33.917 7.90098 34.0323 7.80533 34.1155C7.70967 34.1988 7.58688 34.2441 7.46009 34.243Z" fill="#414042"/>
<path d="M12.4621 38.8773C12.3405 38.8872 12.2192 38.8541 12.1196 38.7835C12.02 38.713 11.9484 38.6096 11.9174 38.4916C11.8864 38.3735 11.898 38.2483 11.9501 38.1379C12.0023 38.0276 12.0916 37.9391 12.2025 37.8881C12.2025 37.8881 12.9061 37.4155 15.4194 34.4193C15.8418 33.9032 16.1808 33.3241 16.4241 32.7032C16.6921 32.0406 16.8956 31.3537 17.0317 30.6521C17.4159 29.276 17.3095 27.7961 17.203 26.3733L17.1719 25.9397C17.1623 25.802 17.2077 25.6661 17.2983 25.5619C17.3888 25.4577 17.5171 25.3937 17.6548 25.3841C17.7925 25.3744 17.9284 25.4199 18.0326 25.5105C18.1368 25.601 18.2008 25.7293 18.2104 25.867L18.2416 26.2954C18.3532 27.8143 18.4675 29.385 18.0417 30.8987C17.8971 31.6499 17.6806 32.3855 17.3952 33.0952C17.1105 33.8171 16.7145 34.4899 16.2216 35.0892C13.5786 38.2386 12.8282 38.7241 12.7036 38.8046C12.6303 38.8483 12.5474 38.8732 12.4621 38.8773Z" fill="#414042"/>
<path d="M22.5395 39.705C22.4262 39.7061 22.3157 39.6702 22.2248 39.6027C22.1339 39.5352 22.0675 39.4398 22.0358 39.3311C21.2906 36.9424 16.9833 32.7727 16.9392 32.7286C16.8892 32.6805 16.8492 32.6231 16.8215 32.5595C16.7937 32.496 16.7788 32.4276 16.7774 32.3583C16.7761 32.289 16.7885 32.2201 16.8138 32.1556C16.8391 32.091 16.8768 32.0321 16.9249 31.9821C16.973 31.9322 17.0304 31.8922 17.0939 31.8644C17.1575 31.8367 17.2258 31.8217 17.2952 31.8204C17.3645 31.8191 17.4334 31.8314 17.4979 31.8567C17.5625 31.882 17.6214 31.9198 17.6713 31.9679C17.8557 32.147 22.2279 36.3687 23.0432 39.0195C23.0694 39.0984 23.0763 39.1825 23.0632 39.2646C23.0502 39.3467 23.0176 39.4245 22.9683 39.4915C22.9189 39.5584 22.8542 39.6125 22.7796 39.6492C22.705 39.6859 22.6226 39.7041 22.5395 39.7024V39.705Z" fill="#414042"/>
<path d="M18.157 39.9991C18.0399 40.0055 17.9242 39.9721 17.8285 39.9044C17.7328 39.8366 17.6629 39.7385 17.6301 39.6259C17.5973 39.5134 17.6036 39.393 17.6478 39.2845C17.6921 39.1759 17.7718 39.0856 17.874 39.0281C18.7983 38.4439 19.533 36.1721 19.7382 35.3569C19.7552 35.2897 19.7853 35.2265 19.8268 35.171C19.8682 35.1155 19.9202 35.0687 19.9798 35.0332C20.0393 34.9978 20.1053 34.9744 20.1738 34.9645C20.2424 34.9545 20.3123 34.9582 20.3795 34.9752C20.4466 34.9922 20.5098 35.0224 20.5653 35.0638C20.6208 35.1053 20.6677 35.1573 20.7031 35.2168C20.7385 35.2764 20.7619 35.3423 20.7719 35.4109C20.7818 35.4795 20.7782 35.5493 20.7611 35.6165C20.6754 35.9618 19.8836 39.0099 18.4374 39.9238C18.353 39.9751 18.2557 40.0012 18.157 39.9991Z" fill="#414042"/>
<path d="M36.1177 32.0724C36.0867 32.0763 36.0553 32.0763 36.0242 32.0724C35.0558 31.8985 34.4482 31.2468 34.0276 30.699L33.9653 30.5977C32.9424 28.3622 30.777 27.1965 28.3209 27.5548H28.2793H27.9185C27.3992 27.5548 26.8436 27.5548 26.3217 27.5107C25.657 27.4717 25.1066 27.4172 24.5925 27.3471C22.5155 27.0563 20.9395 26.4098 19.6595 25.3115C19.6068 25.2665 19.5635 25.2116 19.5321 25.1499C19.5006 25.0881 19.4817 25.0208 19.4762 24.9517C19.4708 24.8826 19.479 24.8132 19.5005 24.7473C19.5219 24.6814 19.5561 24.6204 19.6011 24.5677C19.6461 24.515 19.701 24.4717 19.7628 24.4403C19.8245 24.4088 19.8918 24.3899 19.9609 24.3844C20.03 24.379 20.0994 24.3872 20.1653 24.4087C20.2312 24.4301 20.2923 24.4643 20.3449 24.5093C21.4691 25.4725 22.866 26.0411 24.7431 26.3034C25.2312 26.3709 25.7557 26.4202 26.397 26.4591C26.8877 26.4955 27.394 26.4981 27.9288 26.5007H28.2144C29.5691 26.2865 30.9565 26.5222 32.1645 27.1716C33.3724 27.8211 34.3342 28.8485 34.9026 30.0966C35.3492 30.6652 35.7438 30.9456 36.2164 31.0313C36.3541 31.0437 36.4812 31.1103 36.5698 31.2164C36.6585 31.3226 36.7013 31.4596 36.6889 31.5973C36.6765 31.735 36.6099 31.8622 36.5038 31.9508C36.3976 32.0394 36.2606 32.0822 36.1229 32.0698L36.1177 32.0724Z" fill="#414042"/>
<path d="M33.8367 35.2266H33.8133C33.7438 35.2247 33.6753 35.2087 33.612 35.1798C33.5487 35.1508 33.4919 35.1095 33.4449 35.0581C33.3979 35.0068 33.3617 34.9465 33.3385 34.8809C33.3153 34.8153 33.3055 34.7457 33.3097 34.6762C33.333 34.1569 32.9747 33.4144 32.3308 32.6562C31.8805 32.1497 31.3695 31.7007 30.8094 31.3191C30.5498 31.1166 30.259 30.9115 29.9863 30.6882C29.458 30.2173 29.0137 29.6597 28.6726 29.0395C28.387 28.5462 28.1533 28.027 27.9145 27.5259L27.7898 27.2662C27.7306 27.1395 27.7242 26.9945 27.7719 26.863C27.8196 26.7316 27.9176 26.6244 28.0443 26.5652C28.171 26.506 28.316 26.4995 28.4475 26.5473C28.5789 26.595 28.6861 26.693 28.7453 26.8197L28.8699 27.0793C29.0932 27.5596 29.3243 28.0555 29.5865 28.5099C29.8649 29.0249 30.2303 29.4878 30.6666 29.8782C30.9262 30.0859 31.1859 30.278 31.4455 30.4701C32.0731 30.899 32.6444 31.4049 33.1461 31.976C33.7251 32.6588 34.4157 33.6922 34.369 34.7203C34.3673 34.7885 34.3522 34.8557 34.3245 34.9181C34.2969 34.9804 34.2572 35.0367 34.2077 35.0838C34.1583 35.1308 34.1001 35.1676 34.0364 35.1921C33.9728 35.2166 33.9049 35.2283 33.8367 35.2266Z" fill="#414042"/>
<path d="M29.7324 36.6869C29.6321 36.6872 29.5338 36.6583 29.4494 36.6039C29.3904 36.5674 29.3393 36.5194 29.2991 36.4628C29.2589 36.4062 29.2304 36.3421 29.2154 36.2744C29.2004 36.2066 29.1991 36.1365 29.2117 36.0682C29.2242 36 29.2503 35.9349 29.2885 35.8769C29.6831 35.2589 29.9479 34.1867 30.0674 32.7768C30.1174 32.1065 30.1296 31.4338 30.1037 30.7621C30.1001 30.6939 30.11 30.6257 30.1328 30.5613C30.1556 30.4969 30.1909 30.4377 30.2365 30.3869C30.2822 30.3362 30.3375 30.2949 30.3991 30.2655C30.4607 30.2361 30.5275 30.2191 30.5957 30.2156C30.6639 30.212 30.7322 30.2219 30.7965 30.2447C30.8609 30.2674 30.9201 30.3027 30.9709 30.3484C31.0216 30.3941 31.0629 30.4493 31.0923 30.5109C31.1217 30.5726 31.1387 30.6394 31.1423 30.7076C31.1726 31.4234 31.1605 32.1404 31.1059 32.8547C30.9865 34.4619 30.6723 35.6692 30.179 36.4455C30.1306 36.5197 30.0644 36.5807 29.9864 36.6229C29.9084 36.665 29.8211 36.6871 29.7324 36.6869Z" fill="#414042"/>
<path d="M28.755 38.3398H28.7005C27.0051 38.1659 25.5537 36.3432 23.7674 33.4587C23.2971 32.6723 22.947 31.8199 22.7289 30.9299C22.3315 29.5032 22.1494 28.0251 22.1889 26.5447C22.1889 26.4069 22.2436 26.2749 22.341 26.1775C22.4383 26.0801 22.5704 26.0254 22.7081 26.0254C22.8458 26.0254 22.9779 26.0801 23.0753 26.1775C23.1727 26.2749 23.2274 26.4069 23.2274 26.5447C23.1881 27.9308 23.3552 29.3151 23.7233 30.6521C23.919 31.4483 24.2332 32.2106 24.6554 32.9135C26.234 35.4527 27.5451 37.1715 28.8095 37.3013C28.949 37.3082 29.08 37.3702 29.1737 37.4736C29.2674 37.5771 29.3162 37.7136 29.3093 37.853C29.3024 37.9925 29.2404 38.1235 29.137 38.2172C29.0335 38.3109 28.897 38.3597 28.7576 38.3528L28.755 38.3398Z" fill="#414042"/>
<path d="M21.8088 35.2859C21.6689 35.2857 21.5347 35.2307 21.4349 35.1328C21.3851 35.0843 21.3454 35.0264 21.3184 34.9624C21.2913 34.8984 21.2773 34.8297 21.2773 34.7602C21.2773 34.6907 21.2913 34.6219 21.3184 34.5579C21.3454 34.4939 21.3851 34.436 21.4349 34.3876C21.9432 33.8312 22.3351 33.1789 22.5877 32.4689C22.734 32.0884 22.8563 31.699 22.9538 31.3031C22.9844 31.1654 23.0685 31.0455 23.1876 30.9698C23.3066 30.8941 23.4509 30.8688 23.5886 30.8994C23.7263 30.9301 23.8462 31.0142 23.9219 31.1332C23.9976 31.2523 24.023 31.3965 23.9923 31.5342C23.8849 31.9808 23.7478 32.4197 23.5821 32.848C23.2862 33.6947 22.8206 34.4722 22.2138 35.1328C22.1613 35.1859 22.0979 35.2271 22.028 35.2536C21.9581 35.28 21.8833 35.2911 21.8088 35.2859Z" fill="#414042"/>
<path d="M24.1749 39.3819C24.0832 39.3802 23.9936 39.3542 23.9152 39.3066C23.8552 39.2719 23.8027 39.2254 23.7609 39.17C23.7192 39.1146 23.6889 39.0514 23.672 38.9841C23.655 38.9168 23.6517 38.8468 23.6623 38.7783C23.6729 38.7097 23.6971 38.6439 23.7335 38.5849C24.1697 37.8527 24.18 35.4095 24.084 34.0413C24.0792 33.9731 24.0879 33.9046 24.1096 33.8398C24.1313 33.775 24.1655 33.715 24.2104 33.6634C24.3009 33.5592 24.4292 33.4953 24.5669 33.4856C24.7046 33.476 24.8405 33.5215 24.9447 33.612C25.0489 33.7026 25.1129 33.8308 25.1225 33.9686C25.1511 34.3632 25.3822 37.8631 24.624 39.1249C24.5782 39.2033 24.5126 39.2683 24.4337 39.3134C24.3549 39.3585 24.2657 39.3821 24.1749 39.3819Z" fill="#414042"/>
<path d="M6.35656 20.4827H1.62083C1.48311 20.4827 1.35103 20.428 1.25365 20.3307C1.15627 20.2333 1.10156 20.1012 1.10156 19.9635V13.5168C1.10156 13.377 1.15709 13.2429 1.25593 13.1441C1.35478 13.0452 1.48884 12.9897 1.62862 12.9897C1.7684 12.9897 1.90246 13.0452 2.00131 13.1441C2.10015 13.2429 2.15568 13.377 2.15568 13.5168V19.4286H5.8295V9.23799C5.8295 9.09821 5.88503 8.96415 5.98387 8.86531C6.08271 8.76647 6.21677 8.71094 6.35656 8.71094C6.49634 8.71094 6.6304 8.76647 6.72924 8.86531C6.82808 8.96415 6.88361 9.09821 6.88361 9.23799V19.9557C6.88466 20.0252 6.87175 20.0942 6.84563 20.1586C6.81952 20.223 6.78074 20.2816 6.73158 20.3307C6.68243 20.3799 6.62391 20.4186 6.55949 20.4448C6.49507 20.4709 6.42606 20.4838 6.35656 20.4827Z" fill="#DB1B5A"/>
<path d="M15.7072 20.6025H11.0935C10.9558 20.6025 10.8237 20.5478 10.7263 20.4504C10.6289 20.3531 10.5742 20.221 10.5742 20.0833V4.60128C10.5742 4.46149 10.6297 4.32743 10.7286 4.22859C10.8274 4.12975 10.9615 4.07422 11.1013 4.07422C11.2411 4.07422 11.3751 4.12975 11.474 4.22859C11.5728 4.32743 11.6283 4.46149 11.6283 4.60128V19.5484H15.1801V6.52257C15.1801 6.38278 15.2357 6.24872 15.3345 6.14988C15.4333 6.05104 15.5674 5.99551 15.7072 5.99551C15.847 5.99551 15.981 6.05104 16.0799 6.14988C16.1787 6.24872 16.2342 6.38278 16.2342 6.52257V20.0755C16.2353 20.145 16.2224 20.214 16.1963 20.2784C16.1701 20.3428 16.1314 20.4013 16.0822 20.4505C16.0331 20.4996 15.9745 20.5384 15.9101 20.5645C15.8457 20.5907 15.7767 20.6036 15.7072 20.6025Z" fill="#DB1B5A"/>
<path d="M20.5818 20.6156C20.444 20.6156 20.312 20.5609 20.2146 20.4635C20.1172 20.3662 20.0625 20.2341 20.0625 20.0964V1.62081C20.0625 1.48102 20.118 1.34696 20.2169 1.24812C20.3157 1.14928 20.4498 1.09375 20.5896 1.09375C20.7293 1.09375 20.8634 1.14928 20.9622 1.24812C21.0611 1.34696 21.1166 1.48102 21.1166 1.62081V20.0886C21.1177 20.1588 21.1045 20.2284 21.078 20.2934C21.0514 20.3583 21.0119 20.4172 20.9619 20.4665C20.9119 20.5157 20.8524 20.5543 20.7871 20.58C20.7218 20.6056 20.6519 20.6177 20.5818 20.6156Z" fill="#DB1B5A"/>
<path d="M29.7078 20.4831H24.8786C24.7409 20.4831 24.6088 20.4284 24.5115 20.331C24.4141 20.2336 24.3594 20.1015 24.3594 19.9638V5.59045C24.3594 5.45067 24.4149 5.31661 24.5137 5.21777C24.6126 5.11893 24.7466 5.0634 24.8864 5.0634C25.0262 5.0634 25.1603 5.11893 25.2591 5.21777C25.358 5.31661 25.4135 5.45067 25.4135 5.59045V19.4289H29.1886V4.15208C29.1886 4.01436 29.2433 3.88228 29.3407 3.7849C29.438 3.68752 29.5701 3.63281 29.7078 3.63281C29.8456 3.63281 29.9776 3.68752 30.075 3.7849C30.1724 3.88228 30.2271 4.01436 30.2271 4.15208V19.956C30.2281 20.0249 30.2155 20.0932 30.1898 20.1571C30.1642 20.221 30.1261 20.2792 30.0778 20.3282C30.0295 20.3773 29.9719 20.4162 29.9084 20.4428C29.8449 20.4694 29.7767 20.4831 29.7078 20.4831Z" fill="#DB1B5A"/>
<path d="M38.7243 20.8387H34.3962C34.2585 20.8387 34.1264 20.784 34.029 20.6866C33.9317 20.5893 33.877 20.4572 33.877 20.3195V8.03878C33.877 7.89899 33.9325 7.76493 34.0313 7.66609C34.1302 7.56725 34.2642 7.51172 34.404 7.51172C34.5438 7.51172 34.6779 7.56725 34.7767 7.66609C34.8755 7.76493 34.9311 7.89899 34.9311 8.03878V19.7846H38.2051V14.296C38.2051 14.1562 38.2606 14.0221 38.3594 13.9233C38.4583 13.8244 38.5923 13.7689 38.7321 13.7689C38.8719 13.7689 39.006 13.8244 39.1048 13.9233C39.2036 14.0221 39.2592 14.1562 39.2592 14.296V20.3195C39.2592 20.389 39.2453 20.4578 39.2182 20.5218C39.1911 20.5859 39.1515 20.6438 39.1016 20.6923C39.0517 20.7407 38.9926 20.7786 38.9278 20.8038C38.863 20.8289 38.7938 20.8408 38.7243 20.8387Z" fill="#DB1B5A"/>
<path d="M1.60973 15.1882C2.49876 15.1882 3.21946 14.4675 3.21946 13.5785C3.21946 12.6895 2.49876 11.9688 1.60973 11.9688C0.720701 11.9688 0 12.6895 0 13.5785C0 14.4675 0.720701 15.1882 1.60973 15.1882Z" fill="#DB1B5A"/>
<path d="M6.34801 10.864C7.23704 10.864 7.95774 10.1433 7.95774 9.25426C7.95774 8.36523 7.23704 7.64453 6.34801 7.64453C5.45898 7.64453 4.73828 8.36523 4.73828 9.25426C4.73828 10.1433 5.45898 10.864 6.34801 10.864Z" fill="#DB1B5A"/>
<path d="M11.1019 6.30735C11.9909 6.30735 12.7116 5.58665 12.7116 4.69762C12.7116 3.80859 11.9909 3.08789 11.1019 3.08789C10.2129 3.08789 9.49219 3.80859 9.49219 4.69762C9.49219 5.58665 10.2129 6.30735 11.1019 6.30735Z" fill="#DB1B5A"/>
<path d="M15.7132 8.17259C16.6023 8.17259 17.323 7.45189 17.323 6.56286C17.323 5.67383 16.6023 4.95312 15.7132 4.95312C14.8242 4.95312 14.1035 5.67383 14.1035 6.56286C14.1035 7.45189 14.8242 8.17259 15.7132 8.17259Z" fill="#DB1B5A"/>
<path d="M20.557 3.21946C21.446 3.21946 22.1667 2.49876 22.1667 1.60973C22.1667 0.720701 21.446 0 20.557 0C19.668 0 18.9473 0.720701 18.9473 1.60973C18.9473 2.49876 19.668 3.21946 20.557 3.21946Z" fill="#DB1B5A"/>
<path d="M24.8636 7.27415C25.7527 7.27415 26.4734 6.55345 26.4734 5.66442C26.4734 4.77539 25.7527 4.05469 24.8636 4.05469C23.9746 4.05469 23.2539 4.77539 23.2539 5.66442C23.2539 6.55345 23.9746 7.27415 24.8636 7.27415Z" fill="#DB1B5A"/>
<path d="M29.6898 5.67845C30.5788 5.67845 31.2995 4.95775 31.2995 4.06872C31.2995 3.17969 30.5788 2.45898 29.6898 2.45898C28.8008 2.45898 28.0801 3.17969 28.0801 4.06872C28.0801 4.95775 28.8008 5.67845 29.6898 5.67845Z" fill="#DB1B5A"/>
<path d="M34.3636 9.48118C35.2527 9.48118 35.9734 8.76048 35.9734 7.87145C35.9734 6.98242 35.2527 6.26172 34.3636 6.26172C33.4746 6.26172 32.7539 6.98242 32.7539 7.87145C32.7539 8.76048 33.4746 9.48118 34.3636 9.48118Z" fill="#DB1B5A"/>
<path d="M38.6781 15.6902C39.5671 15.6902 40.2878 14.9695 40.2878 14.0804C40.2878 13.1914 39.5671 12.4707 38.6781 12.4707C37.7891 12.4707 37.0684 13.1914 37.0684 14.0804C37.0684 14.9695 37.7891 15.6902 38.6781 15.6902Z" fill="#DB1B5A"/>
<path d="M50.4775 15.7969H48.3381V20.0263H46.0352V8.45703H51.0876C52.3806 8.45703 53.3897 8.77811 54.115 9.42027C54.8402 10.0624 55.2028 10.959 55.2028 12.1101C55.2278 12.8681 55.0115 13.6145 54.5849 14.2417C54.1523 14.8332 53.5446 15.2737 52.848 15.5009L55.4806 20.0263H52.9648L50.4775 15.7969ZM48.3381 13.6913H50.9552C51.5922 13.6913 52.0665 13.5623 52.378 13.3044C52.5425 13.1546 52.6704 12.969 52.7519 12.7619C52.8334 12.5548 52.8662 12.3318 52.848 12.1101C52.8672 11.8946 52.8388 11.6776 52.7647 11.4743C52.6907 11.271 52.5729 11.0866 52.4196 10.9339C52.134 10.6882 51.69 10.5653 51.0876 10.5653H48.3381V13.6913Z" fill="#DB1B5A"/>
<path d="M58.2725 19.6954C57.6445 19.3376 57.1326 18.8068 56.7978 18.1662C56.4392 17.4636 56.2608 16.683 56.2785 15.8944C56.2636 15.1076 56.4476 14.3297 56.8134 13.633C57.1474 12.9852 57.6577 12.4452 58.2855 12.0752C58.9352 11.7 59.6748 11.5088 60.4249 11.5221C61.1764 11.5096 61.9176 11.6978 62.5721 12.0674C63.2021 12.4287 63.7163 12.9618 64.0546 13.6044C64.4199 14.3079 64.6038 15.0914 64.5894 15.884C64.6035 16.6691 64.4196 17.445 64.0546 18.1402C63.7148 18.7845 63.2012 19.3206 62.5721 19.6876C61.9137 20.0478 61.1753 20.2366 60.4249 20.2366C59.6745 20.2366 58.9361 20.0478 58.2777 19.6876L58.2725 19.6954ZM61.8114 17.6183C62.1795 17.1195 62.363 16.5083 62.3306 15.8892C62.3623 15.2685 62.1789 14.656 61.8114 14.1548C61.6459 13.9465 61.4337 13.7801 61.1919 13.6691C60.9501 13.5582 60.6856 13.5057 60.4197 13.5161C60.1555 13.5083 59.8933 13.5633 59.6545 13.6766C59.4157 13.7899 59.2073 13.9582 59.0462 14.1678C58.6778 14.6685 58.4943 15.2814 58.527 15.9022C58.4957 16.5212 58.6791 17.132 59.0462 17.6313C59.2088 17.8404 59.419 18.0077 59.6592 18.1192C59.8995 18.2308 60.1629 18.2834 60.4275 18.2726C60.6929 18.2801 60.9563 18.2253 61.1966 18.1126C61.4369 17.9999 61.6475 17.8324 61.8114 17.6235V17.6183Z" fill="#DB1B5A"/>
<path d="M67.7022 19.6949C67.0742 19.3371 66.5623 18.8062 66.2275 18.1656C65.8689 17.4631 65.6905 16.6824 65.7082 15.8938C65.6933 15.107 65.8773 14.3292 66.2431 13.6324C66.5771 12.9847 67.0874 12.4447 67.7152 12.0746C68.3621 11.7053 69.0969 11.5178 69.8416 11.532C70.5931 11.5195 71.3343 11.7077 71.9888 12.0772C72.6207 12.4377 73.1368 12.9709 73.4765 13.6143C73.8418 14.3177 74.0257 15.1013 74.0113 15.8938C74.0254 16.6789 73.8415 17.4549 73.4765 18.1501C73.1352 18.7905 72.6217 19.3229 71.994 19.6871C71.3356 20.0473 70.5972 20.2361 69.8468 20.2361C69.0964 20.2361 68.358 20.0473 67.6996 19.6871L67.7022 19.6949ZM71.241 17.6178C71.6092 17.119 71.7927 16.5078 71.7603 15.8887C71.792 15.268 71.6086 14.6554 71.241 14.1543C71.0748 13.9449 70.8613 13.7778 70.6181 13.6668C70.3748 13.5558 70.1087 13.504 69.8416 13.5156C69.5774 13.5078 69.3152 13.5627 69.0764 13.676C68.8376 13.7893 68.6292 13.9577 68.4681 14.1673C68.0997 14.6679 67.9162 15.2809 67.9489 15.9016C67.9176 16.5206 68.101 17.1315 68.4681 17.6308C68.6308 17.8374 68.84 18.0025 69.0788 18.1126C69.3175 18.2227 69.5789 18.2747 69.8416 18.2643C70.1089 18.2752 70.375 18.2228 70.6182 18.1114C70.8614 17.9999 71.0748 17.8326 71.241 17.623V17.6178Z" fill="#DB1B5A"/>
<path d="M81.4678 19.4885C81.142 19.7291 80.7776 19.9126 80.3903 20.0311C79.9573 20.1744 79.5041 20.2471 79.048 20.2466C78.1168 20.2466 77.4244 19.961 76.9709 19.3898C76.5174 18.8187 76.2872 18.0398 76.2803 17.0531V13.6078H74.668V12.0941L76.2803 11.8137V9.41211H78.469V11.7488H81.0368V13.6078H78.469V16.6689C78.4426 17.0776 78.5326 17.4854 78.7286 17.845C78.8177 17.9828 78.9419 18.0944 79.0884 18.1683C79.2348 18.2422 79.3983 18.2758 79.5621 18.2656C79.9792 18.2597 80.3875 18.1442 80.746 17.9307L81.4678 19.4885Z" fill="#DB1B5A"/>
<path d="M88.8582 12.3972C89.483 12.9736 89.7955 13.8486 89.7955 15.0221V20.0252H88.0689L87.8534 18.9244C87.5721 19.3094 87.2061 19.6248 86.7837 19.8461C86.2862 20.1163 85.727 20.2523 85.161 20.2407C84.4123 20.2742 83.6762 20.0404 83.0839 19.5813C82.8264 19.365 82.6221 19.0923 82.4871 18.7843C82.352 18.4763 82.2897 18.1413 82.305 17.8054C82.2942 17.5149 82.3458 17.2256 82.4565 16.9568C82.5671 16.6881 82.7341 16.4462 82.9463 16.2476C83.4548 15.8039 84.0633 15.4903 84.7196 15.3337C85.6681 15.098 86.6333 14.9357 87.6067 14.8481V14.7339C87.6223 14.5435 87.599 14.3518 87.5383 14.1706C87.4776 13.9895 87.3807 13.8225 87.2536 13.6798C87.1161 13.5582 86.9557 13.465 86.7819 13.4057C86.6081 13.3465 86.4243 13.3222 86.2411 13.3345C85.8643 13.3089 85.4922 13.4298 85.2025 13.672C85.0827 13.7775 84.9874 13.9079 84.9233 14.0541C84.8591 14.2003 84.8277 14.3588 84.8313 14.5184H82.6425C82.6413 13.9749 82.8062 13.4441 83.1151 12.9969C83.4362 12.5287 83.8799 12.1578 84.3977 11.9247C84.987 11.6584 85.6282 11.5263 86.2748 11.5378C87.3705 11.5343 88.2316 11.8208 88.8582 12.3972ZM86.9317 18.1896C87.2995 17.8746 87.5396 17.436 87.6067 16.9564V16.2891C86.8226 16.2975 86.0459 16.4425 85.3116 16.7175C84.7923 16.9477 84.537 17.2774 84.5457 17.7067C84.5375 17.8407 84.5626 17.9745 84.6188 18.0964C84.675 18.2183 84.7604 18.3243 84.8676 18.4051C85.1111 18.5731 85.4029 18.657 85.6984 18.644C86.1513 18.649 86.5903 18.4873 86.9317 18.1896Z" fill="#DB1B5A"/>
<path d="M93.8606 20.0251H91.6719V7.63281H93.8606V20.0251Z" fill="#DB1B5A"/>
<path d="M98.1047 20.0251H95.916V7.63281H98.1047V20.0251Z" fill="#DB1B5A"/>
<path d="M107.732 11.748L105.198 19.4877C104.945 20.3367 104.615 21.1606 104.212 21.9491C103.924 22.4911 103.502 22.9498 102.986 23.281C102.374 23.6257 101.697 23.8371 100.997 23.9015L100.538 22.1074C100.999 22.0164 101.436 21.8289 101.82 21.557C102.168 21.284 102.441 20.9265 102.612 20.5185L99.4395 11.748H101.727L103.734 17.7716L105.479 11.748H107.732Z" fill="#DB1B5A"/>
<path d="M52.1293 29.0277H48.7021L47.8791 31.3644H45.9941L49.4992 22.0176H51.6386L54.8269 31.3644H52.8744L52.1293 29.0277ZM49.2733 27.4335H51.6256L50.5222 23.9804L49.2733 27.4335Z" fill="#414042"/>
<path d="M57.9494 31.3527H56.0801V22.0059H57.9546L57.9494 31.3527Z" fill="#414042"/>
</svg>
